<svg viewBox="0 0 48 48" width="144" height="144" xmlns="http://www.w3.org/2000/svg"><path fill="#e91e63" d="M6.372 10.225a3.936 3.936 0 0 1 3.936-3.935h27.549a3.936 3.936 0 0 1 3.935 3.935v27.55a3.936 3.936 0 0 1-3.935 3.935h-27.55a3.936 3.936 0 0 1-3.935-3.935z" style="stroke-width:.983902"/><path fill="#16020b" d="M27.312 22.576c-.5 0-.864.202-1.095.605-.23.404-.346 1.122-.346 2.153v.72c0 1.026.11 1.742.327 2.148.217.407.586.61 1.105.61.538 0 .945-.24 1.22-.72v-4.746c-.269-.514-.672-.77-1.21-.77z" style="stroke-width:.983902"/><path fill="#16020b" d="M9.324 9.242v29.516H38.84V9.242zm11.945 21.645h-2.824v-13.99h2.824zm9.993 0h-2.47l-.125-1.056c-.557.833-1.274 1.25-2.152 1.25-1.09 0-1.921-.417-2.494-1.25-.572-.834-.866-2.057-.88-3.67v-.788c0-1.704.289-2.976.866-3.815.576-.84 1.415-1.258 2.517-1.258.801 0 1.466.346 1.999 1.038v-5.21h2.738v14.76z" style="stroke-width:.983902"/></svg>