<?xml version="1.0" encoding="UTF-8" standalone="no"?>
<svg
   viewBox="0 0 48 48"
   width="144px"
   height="144px"
   version="1.1"
   id="svg118"
   sodipodi:docname="inkscape.svg"
   inkscape:version="1.3.2 (091e20ef0f, 2023-11-25, custom)"
   xmlns:inkscape="http://www.inkscape.org/namespaces/inkscape"
   xmlns:sodipodi="http://sodipodi.sourceforge.net/DTD/sodipodi-0.dtd"
   xmlns="http://www.w3.org/2000/svg"
   xmlns:svg="http://www.w3.org/2000/svg">
  <defs
     id="defs122" />
  <sodipodi:namedview
     id="namedview120"
     pagecolor="#ffffff"
     bordercolor="#999999"
     borderopacity="1"
     inkscape:pageshadow="0"
     inkscape:pageopacity="0"
     inkscape:pagecheckerboard="0"
     showgrid="false"
     inkscape:zoom="3.4305556"
     inkscape:cx="70.688258"
     inkscape:cy="70.834007"
     inkscape:window-width="1894"
     inkscape:window-height="1054"
     inkscape:window-x="0"
     inkscape:window-y="0"
     inkscape:window-maximized="1"
     inkscape:current-layer="svg118"
     inkscape:showpageshadow="2"
     inkscape:deskcolor="#d1d1d1" />
  <path
     fill="#212121"
     d="M 41.758466,21.310081 27.071475,6.0368376 c -1.822729,-1.7552531 -4.817964,-1.7552531 -6.504865,0 L 6.3931382,20.780789 c -5.3726695,5.456795 3.6428298,5.018639 6.8466268,7.085859 1.477462,0.977965 -4.3535189,2.242483 -3.084619,3.532414 1.236476,1.297819 7.077097,2.466819 8.313573,3.724327 1.236476,1.289931 -2.476458,2.663112 -1.232095,3.953044 1.204929,1.289931 3.875929,0.06134 4.398211,2.994358 0.37769,2.171502 5.064207,1.080493 7.264627,-0.770278 1.373181,-1.18565 -2.401095,-1.184774 -1.164619,-2.482592 1.108535,-1.137453 2.167996,-1.643086 3.131939,-1.955053 1.726335,-0.568726 3.698038,-0.441661 4.428882,-2.332742 0.618676,-1.570352 -4.61466,-2.798941 -3.202045,-3.808453 3.372049,-2.410734 15.382783,-3.610406 9.664847,-9.411592 z M 25.504629,31.802166 c -1.86304,0.64146 -10.399196,-3.45968 -8.158466,-3.45968 0.385577,8.76e-4 13.01674,1.809584 8.158466,3.45968 z m 11.348241,4.44816 c -1.618548,1.668498 0.281297,3.416741 1.864793,2.264391 0.423258,-0.318102 -0.03418,-1.867421 -1.864793,-2.264391 z m 1.186527,-1.617672 c 0,0.787805 5.532158,1.237353 5.227202,-0.187531 -0.440785,-2.400219 -4.615536,-2.212688 -5.227202,0.187531 z"
     id="path110"
     style="stroke-width:0.876312;fill:#666666" />
  <path
     fill="#212121"
     d="m 11.339044,39.265716 c 1.294313,1.362665 3.251994,-0.297946 3.882062,-2.214441 -1.25926,-2.001496 -5.9107248,0.127942 -3.882062,2.214441 z"
     id="path112"
     style="stroke-width:0.876312;fill:#666666" />
  <path
     fill="#424242"
     d="M 26.427385,7.8665773 22.501507,14.517786 15.543589,26.312947 C 14.185305,25.795923 12.730627,25.48045 11.372344,25.235083 10.846556,25.068584 10.312006,24.919611 9.7774555,24.779401 8.7784597,24.507744 6.9644937,24.008246 6.5000483,23.578853 6.5613901,23.394828 6.7979944,22.89533 7.6830696,21.992728 l 6.7300774,-6.99297 7.448652,-7.7465992 c 0.481972,-0.4994979 1.165495,-0.7799178 1.93665,-0.7799178 0.771155,0 1.524783,0.289183 2.068097,0.8062072 z"
     id="path114"
     style="stroke-width:0.876312;fill:#b3b3b3" />
  <path
     fill="#fafafa"
     d="m 31.948152,13.597658 c -0.02629,0.08763 -0.07011,0.157737 -0.113921,0.210315 l -2.672752,-2.199543 -0.525787,3.233592 -2.199543,-1.200548 -3.584117,2.295938 -0.350525,-1.419626 -0.832496,-3.408854 -1.910361,4.197535 -4.775901,-0.03505 c -0.297946,0 -0.481971,-0.105158 -0.569602,-0.271657 l 7.448652,-7.7465992 c 0.481972,-0.4994979 1.165495,-0.7799178 1.93665,-0.7799178 0.771155,0 1.524783,0.289183 2.068097,0.8062072 l 0.560839,0.5871291 z"
     id="path116"
     style="stroke-width:0.876312;fill:#ffffff" />
</svg>
