<svg viewBox="0 0 48 48" width="144" height="144" xmlns="http://www.w3.org/2000/svg"><path fill="#212121" d="M41.758 21.31 27.071 6.037c-1.822-1.755-4.817-1.755-6.504 0L6.393 20.78c-5.373 5.457 3.643 5.018 6.847 7.086 1.477.978-4.354 2.242-3.085 3.532 1.237 1.298 7.077 2.467 8.314 3.724 1.236 1.29-2.477 2.664-1.232 3.953 1.205 1.29 3.876.062 4.398 2.995.378 2.171 5.064 1.08 7.264-.77 1.374-1.186-2.4-1.185-1.164-2.483 1.108-1.138 2.168-1.643 3.132-1.955 1.726-.569 3.698-.442 4.429-2.333.618-1.57-4.615-2.799-3.202-3.808 3.372-2.411 15.382-3.61 9.664-9.412zM25.505 31.802c-1.863.642-10.4-3.46-8.159-3.46.386.001 13.017 1.81 8.159 3.46zm11.348 4.448c-1.619 1.669.281 3.417 1.865 2.265.423-.318-.035-1.868-1.865-2.265zm1.186-1.617c0 .787 5.533 1.237 5.228-.188-.441-2.4-4.616-2.213-5.228.188z" style="stroke-width:.876312;fill:#666"/><path fill="#212121" d="M11.339 39.266c1.294 1.362 3.252-.298 3.882-2.215-1.26-2.001-5.91.128-3.882 2.215z" style="stroke-width:.876312;fill:#666"/><path fill="#424242" d="m26.427 7.867-3.925 6.65-6.958 11.796c-1.359-.517-2.813-.833-4.172-1.078a33.132 33.132 0 0 0-1.595-.456c-.999-.271-2.813-.77-3.277-1.2.061-.184.298-.684 1.183-1.586L14.413 15l7.449-7.747c.482-.5 1.165-.78 1.936-.78.772 0 1.525.29 2.069.806z" style="stroke-width:.876312;fill:#b3b3b3"/><path fill="#fafafa" d="M31.948 13.598a.597.597 0 0 1-.114.21l-2.673-2.2-.525 3.234-2.2-1.2-3.584 2.295-.35-1.42-.833-3.408-1.91 4.197-4.776-.035c-.298 0-.482-.105-.57-.271l7.449-7.747c.482-.5 1.165-.78 1.936-.78.772 0 1.525.29 2.069.806l.56.588z" style="stroke-width:.876312;fill:#fff"/></svg>