<svg viewBox="0 0 48 48" width="144" height="144" xmlns="http://www.w3.org/2000/svg"><path fill="#03a9f4" d="M6.685 10.533a3.848 3.848 0 0 1 3.848-3.848h26.934a3.848 3.848 0 0 1 3.848 3.848v26.934a3.848 3.848 0 0 1-3.848 3.848H10.533a3.848 3.848 0 0 1-3.848-3.848z" style="stroke-width:.961921"/><path fill="#020f16" d="M20.168 19.358h-1.926v4.265h1.898c.526 0 .933-.172 1.221-.517.289-.344.432-.845.432-1.503 0-.683-.147-1.226-.441-1.63a1.418 1.418 0 0 0-1.184-.615z" style="stroke-width:.961921"/><path fill="#020f16" d="M9.571 9.571V38.43H38.43V9.57zM23.39 24.76c-.794.777-1.897 1.165-3.306 1.165h-1.841v4.81H15.48V17.055h4.66c1.352 0 2.432.42 3.236 1.259.804.839 1.207 1.929 1.207 3.269s-.398 2.398-1.194 3.175zm8.962 5.336c-.682.55-1.578.826-2.686.826-.746 0-1.404-.145-1.973-.437a3.32 3.32 0 0 1-1.34-1.217 3.133 3.133 0 0 1-.483-1.681h2.527c.013.463.12.81.324 1.043.204.232.537.347 1 .347.714 0 1.071-.322 1.071-.968 0-.225-.108-.433-.324-.624-.216-.19-.695-.448-1.441-.774-1.096-.445-1.849-.905-2.26-1.382-.41-.477-.615-1.067-.615-1.775 0-.89.321-1.624.963-2.203.641-.58 1.493-.869 2.55-.869 1.114 0 2.006.289 2.677.864.67.575 1.005 1.35 1.005 2.32h-2.659c0-.826-.343-1.24-1.033-1.24a.963.963 0 0 0-.695.263c-.183.175-.273.42-.273.733 0 .225.1.424.302.596.2.172.672.419 1.418.738 1.084.401 1.85.848 2.297 1.34.449.49.672 1.128.672 1.91 0 .91-.342 1.639-1.024 2.19z" style="stroke-width:.961921"/></svg>