<?xml version="1.0" encoding="UTF-8" standalone="no"?>
<svg
   viewBox="0 0 48 48"
   width="144px"
   height="144px"
   version="1.1"
   id="svg27"
   sodipodi:docname="photoshop.svg"
   inkscape:version="1.1.1 (3bf5ae0d25, 2021-09-20)"
   xmlns:inkscape="http://www.inkscape.org/namespaces/inkscape"
   xmlns:sodipodi="http://sodipodi.sourceforge.net/DTD/sodipodi-0.dtd"
   xmlns="http://www.w3.org/2000/svg"
   xmlns:svg="http://www.w3.org/2000/svg">
  <defs
     id="defs31" />
  <sodipodi:namedview
     id="namedview29"
     pagecolor="#ffffff"
     bordercolor="#999999"
     borderopacity="1"
     inkscape:pageshadow="0"
     inkscape:pageopacity="0"
     inkscape:pagecheckerboard="0"
     showgrid="false"
     inkscape:lockguides="false"
     inkscape:zoom="2.4257691"
     inkscape:cx="93.784689"
     inkscape:cy="74.615511"
     inkscape:window-width="1366"
     inkscape:window-height="744"
     inkscape:window-x="-4"
     inkscape:window-y="-4"
     inkscape:window-maximized="1"
     inkscape:current-layer="svg27" />
  <path
     fill="#03a9f4"
     d="m 6.6853918,10.533082 c 0,-2.1248867 1.7228035,-3.8476902 3.8476902,-3.8476902 h 26.933836 c 2.124887,0 3.84769,1.7228035 3.84769,3.8476902 v 26.933836 c 0,2.124887 -1.722803,3.84769 -3.84769,3.84769 H 10.533082 c -2.1248867,0 -3.8476902,-1.722803 -3.8476902,-3.84769 z"
     id="path21"
     style="stroke-width:0.961921" />
  <path
     fill="#020f16"
     d="m 20.1677,19.357761 h -1.925769 v 4.265166 h 1.897873 c 0.526172,0 0.933065,-0.172185 1.221642,-0.516553 0.288577,-0.344368 0.431904,-0.84553 0.431904,-1.503485 0,-0.682965 -0.147175,-1.22549 -0.441523,-1.629497 -0.294349,-0.404008 -0.689699,-0.608897 -1.184127,-0.615631 z"
     id="path23"
     style="stroke-width:0.961921" />
  <path
     fill="#020f16"
     d="M 9.5711597,9.5711597 V 38.42884 H 38.42884 V 9.5711597 Z M 23.38918,24.758957 c -0.794548,0.777233 -1.896912,1.164889 -3.306129,1.164889 h -1.84112 v 4.809613 h -2.76168 V 17.05588 h 4.659553 c 1.352464,0 2.431741,0.420361 3.235908,1.259157 0.804168,0.838796 1.207213,1.928655 1.207213,3.268614 0,1.339957 -0.398236,2.398073 -1.193745,3.175306 z m 8.962233,5.335786 c -0.682003,0.551181 -1.578515,0.826291 -2.68665,0.826291 -0.74549,0 -1.403445,-0.145251 -1.972903,-0.436713 -0.569459,-0.291463 -1.016754,-0.697394 -1.338998,-1.216832 -0.322243,-0.519439 -0.483846,-1.080239 -0.483846,-1.681441 h 2.526971 c 0.01347,0.462685 0.120241,0.8109 0.324168,1.042725 0.203927,0.231823 0.536752,0.347254 1.000399,0.347254 0.713747,0 1.07062,-0.322245 1.07062,-0.967695 0,-0.22509 -0.107735,-0.433827 -0.324168,-0.624287 -0.216432,-0.190462 -0.69547,-0.448257 -1.44096,-0.774349 -1.09563,-0.444408 -1.848815,-0.904207 -2.259556,-1.381321 -0.410742,-0.477113 -0.615632,-1.067734 -0.615632,-1.775709 0,-0.889778 0.321283,-1.623726 0.962886,-2.202803 0.641603,-0.579077 1.492904,-0.868616 2.550056,-0.868616 1.113907,0 2.006572,0.288576 2.677032,0.863806 0.67046,0.57523 1.005209,1.349579 1.005209,2.320157 h -2.658754 c 0,-0.826291 -0.343407,-1.239917 -1.033106,-1.239917 -0.281843,0 -0.512704,0.08753 -0.695469,0.262605 -0.182766,0.17507 -0.272224,0.42036 -0.272224,0.732984 0,0.22509 0.10004,0.424208 0.301081,0.596392 0.201042,0.172184 0.672384,0.418437 1.418836,0.737795 1.084087,0.401122 1.848816,0.847454 2.297072,1.338997 0.448255,0.491542 0.671421,1.129297 0.671421,1.91134 0,0.909017 -0.341482,1.638154 -1.023485,2.189337 z"
     id="path25"
     style="stroke-width:0.961921" />
</svg>
