<svg xmlns="http://www.w3.org/2000/svg" viewBox="0 0 48 48" width="144" height="144"><path fill="#e040fb" d="M6 10a4 4 0 0 1 4-4h28a4 4 0 0 1 4 4v28a4 4 0 0 1-4 4H10a4 4 0 0 1-4-4V10z"/><path fill="#020f16" d="M9 9v30h30V9H9zm12.016 10.174h-2.002v4.434h1.973c.547 0 .97-.179 1.27-.537s.449-.879.449-1.563c0-.71-.153-1.274-.459-1.694s-.717-.633-1.231-.64zm3.349 5.615c-.826.808-1.972 1.211-3.437 1.211h-1.914v5H16V16.781h4.987c1.406 0 2.528.437 3.364 1.309s1.255 2.005 1.255 3.398-.414 2.493-1.241 3.301zM33.2 23.1l-.9-.1c-.8 0-1.3.3-1.5 1v7H28V20.4h2.6l.1 1.1c.4-.9 1-1.3 1.8-1.3.3 0 .6 0 .8.1l-.1 2.8z"/></svg>