<?xml version="1.0" encoding="UTF-8" standalone="no"?>
<svg
   viewBox="0 0 128 128"
   version="1.1"
   id="svg2"
   sodipodi:docname="bash.svg"
   inkscape:version="1.3.2 (091e20ef0f, 2023-11-25, custom)"
   xmlns:inkscape="http://www.inkscape.org/namespaces/inkscape"
   xmlns:sodipodi="http://sodipodi.sourceforge.net/DTD/sodipodi-0.dtd"
   xmlns="http://www.w3.org/2000/svg"
   xmlns:svg="http://www.w3.org/2000/svg">
  <defs
     id="defs2" />
  <sodipodi:namedview
     id="namedview2"
     pagecolor="#ffffff"
     bordercolor="#000000"
     borderopacity="0.25"
     inkscape:showpageshadow="2"
     inkscape:pageopacity="0.0"
     inkscape:pagecheckerboard="0"
     inkscape:deskcolor="#d1d1d1"
     inkscape:zoom="3.3671875"
     inkscape:cx="63.109049"
     inkscape:cy="63.851508"
     inkscape:window-width="1894"
     inkscape:window-height="1054"
     inkscape:window-x="0"
     inkscape:window-y="0"
     inkscape:window-maximized="1"
     inkscape:current-layer="svg2" />
  <path
     fill="#293138"
     d="M 102.04508,34.111826 70.152833,15.177651 C 68.250963,14.053434 66.120868,13.4871 63.999226,13.4871 c -2.121642,0 -4.251736,0.566334 -6.153606,1.699004 L 25.944916,34.120279 c -3.803741,2.256886 -6.153607,6.432548 -6.153607,10.954772 v 37.86835 c 0,4.522225 2.341414,8.697887 6.153607,10.954773 l 31.892251,18.934176 c 1.90187,1.13267 4.023512,1.69055 6.153607,1.69055 2.121642,0 4.251736,-0.56633 6.153606,-1.69055 l 31.9007,-18.934176 c 3.80374,-2.256886 6.15361,-6.441001 6.15361,-10.954773 V 45.066599 c 0,-4.513772 -2.34141,-8.697887 -6.15361,-10.954773 z m -24.698951,59.127033 0.05072,2.721788 c 0,0.329657 -0.211319,0.701578 -0.464902,0.836822 l -1.614476,0.929804 c -0.253583,0.126791 -0.473355,-0.02536 -0.473355,-0.355016 l -0.02536,-2.679524 c -1.377799,0.574788 -2.780957,0.710032 -3.668496,0.355016 -0.169056,-0.06762 -0.24513,-0.312752 -0.177508,-0.600146 l 0.58324,-2.459752 c 0.05072,-0.194413 0.152149,-0.388827 0.287394,-0.507165 0.05072,-0.05072 0.101433,-0.08453 0.152149,-0.109886 0.09298,-0.05072 0.185961,-0.05917 0.262036,-0.02536 0.963614,0.321205 2.189264,0.169056 3.37265,-0.422637 1.50459,-0.760748 2.510468,-2.29915 2.493563,-3.820646 -0.01691,-1.386252 -0.760748,-1.952587 -2.578091,-1.969493 -2.316055,0.0085 -4.479961,-0.447996 -4.513772,-3.86291 -0.02536,-2.806315 1.428516,-5.730969 3.744571,-7.573669 l -0.02536,-2.747146 c 0,-0.338111 0.202866,-0.710032 0.464901,-0.845276 l 1.56376,-0.997425 c 0.253583,-0.126792 0.473355,0.03381 0.473355,0.363468 l 0.02536,2.747146 c 1.149575,-0.456449 2.147,-0.58324 3.051445,-0.371921 0.194414,0.05072 0.287394,0.321205 0.202866,0.633957 l -0.608598,2.434393 c -0.05072,0.185961 -0.15215,0.371922 -0.278941,0.49026 a 0.65086226,0.65086226 0 0 1 -0.160602,0.118339 c -0.08453,0.04226 -0.160603,0.05072 -0.236678,0.04226 -0.414185,-0.09298 -1.394704,-0.304299 -2.941559,0.473354 -1.622929,0.819918 -2.189264,2.231528 -2.180811,3.27967 0.0169,1.251008 0.650862,1.631382 2.865484,1.665193 2.950012,0.05072 4.217926,1.335535 4.251737,4.302453 0.04226,2.907748 -1.513043,6.043721 -3.896721,7.954044 z m 16.719553,-4.572941 c 0,0.253582 -0.03381,0.490259 -0.24513,0.608598 l -8.06393,4.902599 c -0.211319,0.126791 -0.380374,0.0169 -0.380374,-0.236677 V 91.86106 c 0,-0.253583 0.15215,-0.388827 0.363469,-0.515619 l 7.945591,-4.750449 c 0.211319,-0.126791 0.380374,-0.01691 0.380374,0.236677 z M 99.61069,42.099681 69.434349,60.73801 c -3.761477,2.197716 -6.533981,4.665921 -6.542434,9.205052 v 37.183678 c 0,2.71333 1.098859,4.47151 2.780957,4.98712 -0.549429,0.093 -1.115764,0.16061 -1.673646,0.16061 -1.766626,0 -3.507894,-0.48181 -5.037843,-1.38626 L 27.069132,91.95404 c -3.119067,-1.851154 -5.054748,-5.308331 -5.054748,-9.019091 v -37.86835 c 0,-3.71076 1.935681,-7.167938 5.054748,-9.019092 L 58.969836,17.113332 c 1.529949,-0.904445 3.271217,-1.386252 5.037843,-1.386252 1.766626,0 3.507894,0.481807 5.037843,1.386252 l 31.900708,18.934175 c 2.6288,1.56376 4.40388,4.26019 4.90259,7.294729 -1.0735,-2.256886 -3.45717,-2.865484 -6.23813,-1.242555 z"
     id="path2"
     style="stroke-width:0.845276;fill:#cccccc" />
</svg>
