<svg viewBox="0 0 128 128" xmlns="http://www.w3.org/2000/svg"><path fill="#659ad3" d="m106.553 36.426-39.995-23.02c-.662-.414-1.573-.58-2.567-.58-.993 0-1.904.25-2.567.58L21.678 36.51c-1.408.828-2.401 2.898-2.401 4.471v46.123c0 .91.165 1.987.828 2.898l88.435-51.34a5.865 5.865 0 0 0-1.987-2.235z" style="stroke-width:.828048"/><path fill="#03599c" d="M19.856 89.918c.414.662.994 1.242 1.574 1.573l39.912 23.103c.662.414 1.573.58 2.567.58.993 0 1.904-.25 2.567-.58l39.746-23.103c1.408-.828 2.401-2.898 2.401-4.471V40.897c0-.745-.083-1.573-.497-2.318z" style="stroke-width:.828048"/><path fill="#fff" d="M81.629 74.02C78.15 80.146 71.527 84.286 63.99 84.286c-11.178 0-20.287-9.108-20.287-20.287 0-11.179 9.109-20.287 20.287-20.287 7.536 0 14.16 4.14 17.638 10.35l10.764-6.21c-5.63-9.854-16.23-16.56-28.402-16.56-18.051 0-32.707 14.656-32.707 32.707 0 18.051 14.656 32.708 32.707 32.708 12.09 0 22.689-6.624 28.32-16.395z" style="stroke-width:.828048"/></svg>