<?xml version="1.0" encoding="UTF-8" standalone="no"?>
<svg
   viewBox="0 0 128 128"
   version="1.1"
   id="svg3343"
   sodipodi:docname="css3.svg"
   inkscape:version="1.1.1 (3bf5ae0d25, 2021-09-20)"
   xmlns:inkscape="http://www.inkscape.org/namespaces/inkscape"
   xmlns:sodipodi="http://sodipodi.sourceforge.net/DTD/sodipodi-0.dtd"
   xmlns="http://www.w3.org/2000/svg"
   xmlns:svg="http://www.w3.org/2000/svg">
  <defs
     id="defs3347" />
  <sodipodi:namedview
     id="namedview3345"
     pagecolor="#ffffff"
     bordercolor="#999999"
     borderopacity="1"
     inkscape:pageshadow="0"
     inkscape:pageopacity="0"
     inkscape:pagecheckerboard="0"
     showgrid="false"
     inkscape:zoom="2.7289902"
     inkscape:cx="63.943065"
     inkscape:cy="64.126283"
     inkscape:window-width="1366"
     inkscape:window-height="744"
     inkscape:window-x="-4"
     inkscape:window-y="-4"
     inkscape:window-maximized="1"
     inkscape:current-layer="svg3343" />
  <path
     fill="#1572b6"
     d="M 28.064374,103.86204 20.068606,14.177257 h 87.862784 l -8.003717,89.671263 -35.980957,9.97522 z"
     id="path3331"
     style="stroke-width:0.795282" />
  <path
     fill="#33a9dc"
     d="M 64.000795,106.19937 93.075521,98.138391 99.915744,21.509759 H 64.000795 Z"
     id="path3333"
     style="stroke-width:0.795282" />
  <path
     fill="#ffffff"
     d="M 64.000795,54.002609 H 78.556052 L 79.561289,42.739025 H 64.000795 V 31.739476 h 27.581981 l -0.264034,2.951292 -2.703959,30.31139 H 64.000795 Z"
     id="path3335"
     style="stroke-width:0.795282" />
  <path
     fill="#ebebeb"
     d="m 64.066008,82.569149 -0.04851,0.01432 L 51.767763,79.275885 50.98441,70.503126 H 39.944301 l 1.540462,17.271146 22.531143,6.253304 0.0501,-0.01431 z"
     id="path3337"
     style="stroke-width:0.795282" />
  <path
     fill="#ffffff"
     d="m 77.6208,64.536918 -1.32494,14.730219 -12.268025,3.311555 v 11.444113 l 22.549434,-6.249329 0.165419,-1.858574 1.913449,-21.377984 z"
     id="path3339"
     style="stroke-width:0.795282" />
  <path
     fill="#ebebeb"
     d="M 64.038174,31.739476 V 42.739025 H 37.469382 l -0.220293,-2.471737 -0.501028,-5.57652 -0.263238,-2.951292 z m -0.03738,22.264723 v 10.99955 H 51.905347 L 51.685054,62.532011 51.18323,56.955492 50.920787,54.004199 Z"
     id="path3341"
     style="stroke-width:0.795282" />
</svg>
