<svg viewBox="0 0 128 128" xmlns="http://www.w3.org/2000/svg"><path fill="#1572b6" d="M28.064 103.862 20.07 14.177h87.862l-8.003 89.672-35.981 9.975z" style="stroke-width:.795282"/><path fill="#33a9dc" d="m64 106.2 29.076-8.062 6.84-76.628H64z" style="stroke-width:.795282"/><path fill="#fff" d="M64 54.003h14.556l1.005-11.264h-15.56v-11h27.582l-.264 2.952-2.704 30.311H64z" style="stroke-width:.795282"/><path fill="#ebebeb" d="m64.066 82.57-.049.013-12.25-3.307-.783-8.773h-11.04l1.54 17.271 22.532 6.254.05-.015z" style="stroke-width:.795282"/><path fill="#fff" d="m77.62 64.537-1.324 14.73-12.268 3.312v11.444l22.55-6.25.165-1.858 1.913-21.378z" style="stroke-width:.795282"/><path fill="#ebebeb" d="M64.038 31.74v10.999H37.47l-.22-2.472-.5-5.576-.264-2.952zm-.037 22.264v11H51.905l-.22-2.472-.502-5.577-.262-2.95z" style="stroke-width:.795282"/></svg>