<svg viewBox="0 0 128 128" xmlns="http://www.w3.org/2000/svg"><path fill="#293138" d="M102.045 34.112 70.153 15.178a12.097 12.097 0 0 0-6.154-1.69c-2.121 0-4.252.565-6.153 1.698L25.945 34.12c-3.804 2.257-6.154 6.433-6.154 10.955v37.868c0 4.523 2.342 8.698 6.154 10.955l31.892 18.934a11.992 11.992 0 0 0 6.154 1.69c2.121 0 4.252-.565 6.153-1.69l31.901-18.934c3.804-2.257 6.154-6.44 6.154-10.955V45.067c0-4.514-2.342-8.698-6.154-10.955zM77.346 93.239l.05 2.722c0 .33-.21.701-.464.836l-1.615.93c-.253.127-.473-.025-.473-.355l-.025-2.68c-1.378.576-2.781.71-3.669.356-.169-.068-.245-.313-.177-.6l.583-2.46a1.04 1.04 0 0 1 .287-.507.573.573 0 0 1 .153-.11c.093-.05.185-.06.262-.026.963.322 2.189.17 3.372-.422 1.505-.76 2.51-2.3 2.494-3.82-.017-1.387-.761-1.953-2.578-1.97-2.316.008-4.48-.448-4.514-3.863-.025-2.807 1.428-5.731 3.744-7.574l-.025-2.747c0-.338.203-.71.465-.845l1.564-.998c.253-.127.473.034.473.364l.026 2.747c1.15-.457 2.147-.583 3.051-.372.194.05.287.321.203.634l-.609 2.434c-.05.186-.152.372-.279.49a.65.65 0 0 1-.16.119c-.085.042-.16.05-.237.042-.414-.093-1.395-.304-2.942.473-1.622.82-2.189 2.232-2.18 3.28.017 1.251.65 1.632 2.865 1.665 2.95.051 4.218 1.336 4.252 4.303.042 2.908-1.513 6.044-3.897 7.954zm16.72-4.573c0 .253-.034.49-.245.609l-8.064 4.902c-.212.127-.38.017-.38-.237v-2.079c0-.254.151-.389.363-.516l7.945-4.75c.212-.127.38-.017.38.237zM99.61 42.1 69.434 60.738c-3.761 2.198-6.534 4.666-6.542 9.205v37.184c0 2.713 1.099 4.471 2.78 4.987-.549.093-1.115.16-1.673.16a9.91 9.91 0 0 1-5.038-1.386L27.07 91.954c-3.119-1.851-5.055-5.308-5.055-9.02V45.068c0-3.711 1.936-7.168 5.055-9.02l31.9-18.934a9.91 9.91 0 0 1 5.039-1.386 9.91 9.91 0 0 1 5.038 1.386l31.9 18.935c2.629 1.563 4.404 4.26 4.903 7.294-1.074-2.257-3.457-2.865-6.238-1.242z" style="stroke-width:.845276;fill:#ccc"/></svg>