<svg viewBox="0 0 128 128" xmlns="http://www.w3.org/2000/svg"><path fill="#e44d26" d="m27.936 104.005-8.025-90.006h88.178l-8.034 89.992-36.109 10.01z" style="stroke-width:.802081"/><path fill="#f16529" d="m64 106.35 29.178-8.09 6.865-76.902H64z" style="stroke-width:.802081"/><path fill="#ebebeb" d="M64 54.74H49.393l-1.01-11.305H64V32.397H36.32l.264 2.961 2.713 30.421H64zm0 28.669-.049.013-12.293-3.32-.786-8.803H39.79l1.546 17.332 22.613 6.277.051-.013z" style="stroke-width:.802081"/><path fill="#fff" d="M63.962 54.74v11.039h13.592l-1.28 14.316-12.313 3.323v11.485l22.631-6.272.166-1.865 2.594-29.062.269-2.964h-2.974zm0-22.343v11.038h26.664l.221-2.48.504-5.597.264-2.96z" style="stroke-width:.802081"/></svg>