<svg viewBox="0 0 128 128" xmlns="http://www.w3.org/2000/svg"><path fill="#0074bd" d="M51.08 90.908s-3.76 2.188 2.679 2.926c7.801.891 11.788.764 20.382-.861 0 0 2.264 1.416 5.42 2.643-19.273 8.257-43.618-.479-28.481-4.708zm-2.357-10.776s-4.217 3.122 2.227 3.789c8.333.86 14.913.93 26.304-1.262 0 0 1.572 1.597 4.047 2.47-23.298 6.813-49.247.536-32.578-4.997z" style="stroke-width:.788638"/><path fill="#ea2d2e" d="M68.576 61.848c4.751 5.469-1.246 10.386-1.246 10.386s12.057-6.223 6.52-14.02c-5.172-7.267-9.137-10.876 12.331-23.327 0 0-33.699 8.414-17.605 26.96z" style="stroke-width:.788638"/><path fill="#0074bd" d="M94.065 98.88s2.783 2.296-3.066 4.07c-11.121 3.368-46.298 4.384-56.067.134-3.51-1.528 3.075-3.647 5.146-4.095 2.16-.467 3.394-.382 3.394-.382-3.906-2.75-25.247 5.402-10.838 7.74 39.29 6.37 71.621-2.868 61.431-7.466zM52.89 68.965s-17.891 4.25-6.335 5.795c4.88.653 14.604.503 23.667-.258 7.406-.622 14.837-1.95 14.837-1.95s-2.609 1.118-4.498 2.407c-18.172 4.78-53.268 2.554-43.163-2.333 8.542-4.131 15.492-3.661 15.492-3.661zm32.095 17.939c18.47-9.596 9.93-18.817 3.968-17.575-1.457.304-2.11.568-2.11.568s.542-.851 1.576-1.217c11.793-4.144 20.86 12.226-3.803 18.71 0-.001.283-.258.369-.486z" style="stroke-width:.788638"/><path fill="#ea2d2e" d="M73.85 14.779s10.228 10.233-9.702 25.964c-15.982 12.623-3.644 19.818-.005 28.043-9.33-8.417-16.174-15.828-11.584-22.724C59.301 35.94 77.976 31.03 73.851 14.779z" style="stroke-width:.788638"/><path fill="#0074bd" d="M54.705 112.912c17.726 1.133 44.953-.63 45.597-9.019 0 0-1.24 3.18-14.65 5.703-15.132 2.848-33.797 2.516-44.864.69 0 0 2.267 1.877 13.917 2.626z" style="stroke-width:.788638"/></svg>