<svg viewBox="0 0 128 128" xmlns="http://www.w3.org/2000/svg"><path fill="#f0db4f" d="M17.165 17.165h93.67v93.671h-93.67z" style="stroke-width:.748265"/><path fill="#323330" d="M103.17 88.495c-.687-4.273-3.473-7.862-11.727-11.21-2.868-1.317-6.064-2.26-7.017-4.434-.338-1.264-.383-1.977-.169-2.742.614-2.484 3.58-3.259 5.93-2.546 1.514.507 2.947 1.673 3.81 3.534 4.043-2.617 4.035-2.6 6.857-4.399-1.033-1.602-1.585-2.341-2.261-3.026-2.431-2.716-5.744-4.114-11.041-4.007l-2.76.357c-2.644.668-5.164 2.056-6.642 3.917-4.435 5.031-3.17 13.837 2.226 17.46 5.315 3.99 13.124 4.898 14.122 8.629.97 4.567-3.357 6.046-7.658 5.52-3.17-.659-4.933-2.27-6.838-5.2-3.508 2.03-3.508 2.03-7.115 4.105.855 1.87 1.754 2.716 3.188 4.336 6.785 6.883 23.765 6.545 26.81-3.873.124-.357.944-2.743.284-6.42zM68.086 60.216h-8.761l-.036 22.652c0 4.817.249 9.233-.535 10.587-1.281 2.662-4.603 2.332-6.117 1.816-1.54-.757-2.324-1.834-3.231-3.356-.25-.437-.437-.775-.5-.802l-7.123 4.363c1.185 2.431 2.93 4.541 5.165 5.912 3.338 2.004 7.826 2.618 12.519 1.54 3.054-.89 5.69-2.732 7.07-5.537 1.994-3.678 1.566-8.13 1.548-13.053.045-8.033.001-16.064.001-24.122z" style="stroke-width:.748265"/></svg>