<?xml version="1.0" encoding="UTF-8" standalone="no"?>
<svg
   viewBox="0 0 128 128"
   version="1.1"
   id="svg4199"
   sodipodi:docname="java.svg"
   inkscape:version="1.1.1 (3bf5ae0d25, 2021-09-20)"
   xmlns:inkscape="http://www.inkscape.org/namespaces/inkscape"
   xmlns:sodipodi="http://sodipodi.sourceforge.net/DTD/sodipodi-0.dtd"
   xmlns="http://www.w3.org/2000/svg"
   xmlns:svg="http://www.w3.org/2000/svg">
  <defs
     id="defs4203" />
  <sodipodi:namedview
     id="namedview4201"
     pagecolor="#ffffff"
     bordercolor="#999999"
     borderopacity="1"
     inkscape:pageshadow="0"
     inkscape:pageopacity="0"
     inkscape:pagecheckerboard="0"
     showgrid="false"
     inkscape:zoom="2.7289902"
     inkscape:cx="63.943065"
     inkscape:cy="64.126283"
     inkscape:window-width="1366"
     inkscape:window-height="744"
     inkscape:window-x="-4"
     inkscape:window-y="-4"
     inkscape:window-maximized="1"
     inkscape:current-layer="svg4199" />
  <path
     fill="#0074bd"
     d="m 51.079778,90.908281 c 0,0 -3.759437,2.187681 2.679003,2.925847 7.801207,0.89116 11.787772,0.763401 20.382348,-0.861193 0,0 2.26418,1.415605 5.420309,2.642726 -19.273523,8.257039 -43.617988,-0.478704 -28.48166,-4.70738 z m -2.35645,-10.776738 c 0,0 -4.217636,3.122218 2.226325,3.789405 8.333537,0.860404 14.913144,0.930593 26.30423,-1.26182 0,0 1.571756,1.596992 4.04729,2.469225 -23.297942,6.813832 -49.247286,0.536274 -32.577845,-4.99681 z"
     id="path4189"
     style="stroke-width:0.788638" />
  <path
     fill="#ea2d2e"
     d="m 68.575711,61.847761 c 4.751544,5.469204 -1.246048,10.386361 -1.246048,10.386361 0,0 12.057486,-6.223142 6.521247,-14.019617 -5.172676,-7.267298 -9.137948,-10.876894 12.330355,-23.32791 0,7.88e-4 -33.699289,8.414767 -17.605554,26.961166 z"
     id="path4191"
     style="stroke-width:0.788638" />
  <path
     fill="#0074bd"
     d="m 94.065279,98.880622 c 0,0 2.783103,2.294938 -3.066225,4.068588 -11.121372,3.36906 -46.29778,4.38482 -56.067427,0.13485 -3.510227,-1.52838 3.0749,-3.647448 5.146651,-4.094606 2.16008,-0.467662 3.39351,-0.38249 3.39351,-0.38249 -3.906124,-2.74998 -25.246667,5.402166 -10.838252,7.740486 39.290732,6.36904 71.621734,-2.86828 61.431743,-7.466828 z M 52.889702,68.963641 c 0,0 -17.891041,4.24997 -6.335129,5.794912 4.880092,0.652992 14.603998,0.503151 23.667814,-0.257096 7.405311,-0.622236 14.836646,-1.951091 14.836646,-1.951091 0,0 -2.608814,1.119078 -4.498391,2.407712 -18.171796,4.779935 -53.267762,2.55361 -43.162944,-2.332791 8.542526,-4.131674 15.492004,-3.661646 15.492004,-3.661646 z m 32.095199,17.939148 c 18.470689,-9.595359 9.929741,-18.816902 3.968426,-17.574797 -1.457403,0.303625 -2.111183,0.567819 -2.111183,0.567819 0,0 0.542582,-0.85094 1.577275,-1.216868 11.792501,-4.144293 20.860261,12.226254 -3.8036,18.710435 0,-0.0016 0.283121,-0.257884 0.369082,-0.486589 z"
     id="path4193"
     style="stroke-width:0.788638" />
  <path
     fill="#ea2d2e"
     d="m 73.85091,14.778692 c 0,0 10.227058,10.233367 -9.702612,25.964328 -15.982537,12.622939 -3.644296,19.818472 -0.0055,28.043177 C 54.812401,60.369064 47.968601,52.958233 52.559263,46.061594 59.30054,35.940215 77.976276,31.030944 73.85091,14.778692 Z"
     id="path4195"
     style="stroke-width:0.788638" />
  <path
     fill="#0074bd"
     d="m 54.705147,112.91207 c 17.725426,1.13327 44.952363,-0.63091 45.596683,-9.01887 0,0 -1.238953,3.17979 -14.65053,5.70265 -15.130808,2.84856 -33.796291,2.51654 -44.863247,0.68927 0,7.8e-4 2.267334,1.87774 13.917094,2.62695 z"
     id="path4197"
     style="stroke-width:0.788638" />
</svg>
