<?xml version="1.0" encoding="UTF-8" standalone="no"?>
<svg
   viewBox="0 0 128 128"
   version="1.1"
   id="svg4435"
   sodipodi:docname="javascript.svg"
   inkscape:version="1.1.1 (3bf5ae0d25, 2021-09-20)"
   xmlns:inkscape="http://www.inkscape.org/namespaces/inkscape"
   xmlns:sodipodi="http://sodipodi.sourceforge.net/DTD/sodipodi-0.dtd"
   xmlns="http://www.w3.org/2000/svg"
   xmlns:svg="http://www.w3.org/2000/svg">
  <defs
     id="defs4439" />
  <sodipodi:namedview
     id="namedview4437"
     pagecolor="#ffffff"
     bordercolor="#999999"
     borderopacity="1"
     inkscape:pageshadow="0"
     inkscape:pageopacity="0"
     inkscape:pagecheckerboard="0"
     showgrid="false"
     inkscape:zoom="2.7289902"
     inkscape:cx="63.943065"
     inkscape:cy="64.126283"
     inkscape:window-width="1366"
     inkscape:window-height="744"
     inkscape:window-x="-4"
     inkscape:window-y="-4"
     inkscape:window-maximized="1"
     inkscape:current-layer="svg4435" />
  <path
     fill="#f0db4f"
     d="M 17.164618,17.164744 H 110.83538 V 110.83626 H 17.164618 Z"
     id="path4431"
     style="stroke-width:0.748265" />
  <path
     fill="#323330"
     d="m 103.16941,88.495318 c -0.68616,-4.27334 -3.472696,-7.862765 -11.726803,-11.209753 -2.867351,-1.317694 -6.063937,-2.261256 -7.016478,-4.434216 -0.338216,-1.264568 -0.383112,-1.976916 -0.169108,-2.74239 0.614325,-2.484239 3.579698,-3.258693 5.929998,-2.546345 1.513739,0.507323 2.946666,1.673868 3.810912,3.534802 4.042125,-2.61743 4.033894,-2.600219 6.856349,-4.399048 -1.033354,-1.602034 -1.584825,-2.34132 -2.261256,-3.02673 -2.431112,-2.715453 -5.74368,-4.113959 -11.041394,-4.006958 l -2.7596,0.356923 c -2.644367,0.6682 -5.164522,2.056231 -6.642345,3.917165 -4.434217,5.031332 -3.169649,13.83691 2.226087,17.460756 5.315672,3.989747 13.124563,4.897392 14.121999,8.62824 0.9705,4.567408 -3.356715,6.045979 -7.65774,5.520697 -3.169649,-0.659221 -4.932561,-2.270235 -6.838391,-5.199691 -3.507865,2.030042 -3.507865,2.030042 -7.114501,4.104231 0.855267,1.869914 1.753933,2.716201 3.187608,4.336194 6.785264,6.882535 23.764886,6.544325 26.810323,-3.873018 0.12346,-0.35767 0.94356,-2.743138 0.28434,-6.420859 z M 68.087022,60.216151 h -8.761431 l -0.03592,22.651468 c 0,4.817328 0.249172,9.233586 -0.534261,10.587197 -1.281777,2.662326 -4.603324,2.332341 -6.117064,1.816039 -1.540677,-0.757244 -2.32411,-1.833997 -3.231755,-3.355967 -0.249172,-0.436987 -0.436238,-0.775203 -0.499092,-0.801392 l -7.12348,4.362383 c 1.184503,2.431112 2.929456,4.541221 5.164523,5.912041 3.338757,2.00385 7.8261,2.61818 12.519216,1.54068 3.054416,-0.88969 5.689804,-2.73267 7.069604,-5.537912 1.994874,-3.67772 1.566867,-8.129147 1.548908,-13.052728 0.0449,-8.032622 7.49e-4,-16.063746 7.49e-4,-24.121809 z"
     id="path4433"
     style="stroke-width:0.748265" />
</svg>
