<?xml version="1.0" encoding="UTF-8" standalone="no"?>
<svg
   viewBox="0 0 128 128"
   version="1.1"
   id="svg7940"
   sodipodi:docname="python.svg"
   inkscape:version="1.1.1 (3bf5ae0d25, 2021-09-20)"
   xmlns:inkscape="http://www.inkscape.org/namespaces/inkscape"
   xmlns:sodipodi="http://sodipodi.sourceforge.net/DTD/sodipodi-0.dtd"
   xmlns="http://www.w3.org/2000/svg"
   xmlns:svg="http://www.w3.org/2000/svg">
  <defs
     id="defs7944" />
  <sodipodi:namedview
     id="namedview7942"
     pagecolor="#ffffff"
     bordercolor="#999999"
     borderopacity="1"
     inkscape:pageshadow="0"
     inkscape:pageopacity="0"
     inkscape:pagecheckerboard="0"
     showgrid="false"
     inkscape:zoom="2.7289902"
     inkscape:cx="63.943065"
     inkscape:cy="64.126283"
     inkscape:window-width="1366"
     inkscape:window-height="744"
     inkscape:window-x="-4"
     inkscape:window-y="-4"
     inkscape:window-maximized="1"
     inkscape:current-layer="svg7940" />
  <linearGradient
     id="python-original-a"
     gradientUnits="userSpaceOnUse"
     x1="70.252"
     y1="1237.476"
     x2="170.659"
     y2="1151.089"
     gradientTransform="matrix(0.51516466,0,0,-0.51973983,-21.294878,662.50335)">
    <stop
       offset="0"
       stop-color="#5A9FD4"
       id="stop7919" />
    <stop
       offset="1"
       stop-color="#306998"
       id="stop7921" />
  </linearGradient>
  <linearGradient
     id="python-original-b"
     gradientUnits="userSpaceOnUse"
     x1="209.474"
     y1="1098.811"
     x2="173.62"
     y2="1149.537"
     gradientTransform="matrix(0.51516466,0,0,-0.51973983,-21.294878,662.50335)">
    <stop
       offset="0"
       stop-color="#FFD43B"
       id="stop7924" />
    <stop
       offset="1"
       stop-color="#FFE873"
       id="stop7926" />
  </linearGradient>
  <path
     fill="url(#python-original-a)"
     d="m 63.442846,16.645163 c -3.863278,0.0183 -7.550868,0.346798 -10.797412,0.92144 -9.562115,1.689155 -11.297021,5.22485 -11.297021,11.746304 V 37.9243 H 63.94337 v 2.870465 H 32.867869 c -6.56629,0 -12.31637,3.946545 -14.115329,11.457152 -2.075299,8.605903 -2.166802,13.977158 0,22.963716 1.605887,6.68982 5.441713,11.455322 12.008919,11.455322 H 38.53102 V 76.347531 c 0,-7.458449 6.451911,-14.036635 14.115329,-14.036635 h 22.569336 c 6.28263,0 11.297021,-5.173608 11.297021,-11.481858 V 29.313822 c 0,-6.124329 -5.166287,-10.72421 -11.297021,-11.746304 -3.883408,-0.646014 -7.910477,-0.93974 -11.772839,-0.922355 z m -12.219376,6.9259 c 2.333339,0 4.240271,1.937128 4.240271,4.319879 0,2.372686 -1.906017,4.291514 -4.240271,4.291514 -2.34249,0 -4.239357,-1.918828 -4.239357,-4.291514 -9.15e-4,-2.382751 1.896867,-4.319879 4.239357,-4.319879 z"
     id="path7929"
     style="fill:url(#python-original-a);stroke-width:0.915035" />
  <path
     fill="url(#python-original-b)"
     d="m 89.330099,40.794765 v 10.034273 c 0,7.777796 -6.595572,14.324871 -14.115329,14.324871 H 52.645434 c -6.181976,0 -11.297021,5.291647 -11.297021,11.482773 v 21.517046 c 0,6.122502 5.323673,9.724992 11.297021,11.480942 7.151913,2.10184 14.011014,2.48249 22.569336,0 5.687857,-1.64798 11.297021,-4.96223 11.297021,-11.480942 V 89.54142 H 63.94337 v -2.87138 h 33.867272 c 6.566288,0 9.014928,-4.57975 11.298848,-11.455322 2.35896,-7.077795 2.25739,-13.88474 0,-22.963716 C 107.48622,45.713077 104.387,40.79385 97.810642,40.79385 h -8.480543 z m -12.69428,54.487584 c 2.343405,0 4.240272,1.918828 4.240272,4.293344 0,2.380917 -1.897782,4.318047 -4.240272,4.318047 -2.333339,0 -4.239357,-1.93713 -4.239357,-4.318047 0,-2.374516 1.906018,-4.293344 4.239357,-4.293344 z"
     id="path7931"
     style="fill:url(#python-original-b);stroke-width:0.915035" />
  <radialGradient
     id="python-original-c"
     cx="1825.678"
     cy="444.45"
     r="26.743"
     gradientTransform="matrix(0 -.24 -1.055 0 532.979 557.576)"
     gradientUnits="userSpaceOnUse">
    <stop
       offset="0"
       stop-color="#B8B8B8"
       stop-opacity=".498"
       id="stop7933" />
    <stop
       offset="1"
       stop-color="#7F7F7F"
       stop-opacity="0"
       id="stop7935" />
  </radialGradient>
</svg>
