<svg viewBox="0 0 128 128" xmlns="http://www.w3.org/2000/svg"><linearGradient id="a" gradientUnits="userSpaceOnUse" x1="70.252" y1="1237.476" x2="170.659" y2="1151.089" gradientTransform="matrix(.51516 0 0 -.51974 -21.295 662.503)"><stop offset="0" stop-color="#5A9FD4"/><stop offset="1" stop-color="#306998"/></linearGradient><linearGradient id="b" gradientUnits="userSpaceOnUse" x1="209.474" y1="1098.811" x2="173.62" y2="1149.537" gradientTransform="matrix(.51516 0 0 -.51974 -21.295 662.503)"><stop offset="0" stop-color="#FFD43B"/><stop offset="1" stop-color="#FFE873"/></linearGradient><path fill="url(#a)" d="M63.443 16.645c-3.863.018-7.551.347-10.798.922-9.562 1.689-11.297 5.224-11.297 11.746v8.611h22.595v2.87H32.868c-6.566 0-12.317 3.947-14.115 11.458-2.076 8.606-2.167 13.977 0 22.964 1.605 6.69 5.441 11.455 12.008 11.455h7.77V76.348c0-7.459 6.452-14.037 14.115-14.037h22.57c6.282 0 11.297-5.174 11.297-11.482V29.314c0-6.125-5.167-10.724-11.297-11.746-3.884-.646-7.91-.94-11.773-.923zm-12.22 6.926c2.334 0 4.24 1.937 4.24 4.32 0 2.373-1.905 4.291-4.24 4.291-2.342 0-4.239-1.918-4.239-4.291 0-2.383 1.897-4.32 4.24-4.32z" style="fill:url(#a);stroke-width:.915035"/><path fill="url(#b)" d="M89.33 40.795v10.034c0 7.778-6.595 14.325-14.115 14.325h-22.57c-6.182 0-11.297 5.292-11.297 11.483v21.517c0 6.122 5.324 9.725 11.297 11.48 7.152 2.103 14.011 2.483 22.57 0 5.688-1.647 11.297-4.962 11.297-11.48V89.54H63.943V86.67h33.868c6.566 0 9.015-4.58 11.298-11.455 2.36-7.078 2.258-13.885 0-22.964-1.623-6.538-4.722-11.457-11.298-11.457h-8.48zM76.636 95.282c2.343 0 4.24 1.92 4.24 4.294 0 2.38-1.898 4.318-4.24 4.318-2.334 0-4.24-1.937-4.24-4.318 0-2.375 1.906-4.294 4.24-4.294z" style="fill:url(#b);stroke-width:.915035"/></svg>