<?xml version="1.0" encoding="UTF-8" standalone="no"?>
<svg
   viewBox="0 0 128 128"
   version="1.1"
   id="svg1"
   sodipodi:docname="firefox.svg"
   inkscape:version="1.3.2 (091e20ef0f, 2023-11-25, custom)"
   xmlns:inkscape="http://www.inkscape.org/namespaces/inkscape"
   xmlns:sodipodi="http://sodipodi.sourceforge.net/DTD/sodipodi-0.dtd"
   xmlns="http://www.w3.org/2000/svg"
   xmlns:svg="http://www.w3.org/2000/svg">
  <defs
     id="defs1" />
  <sodipodi:namedview
     id="namedview1"
     pagecolor="#ffffff"
     bordercolor="#000000"
     borderopacity="0.25"
     inkscape:showpageshadow="2"
     inkscape:pageopacity="0.0"
     inkscape:pagecheckerboard="0"
     inkscape:deskcolor="#d1d1d1"
     inkscape:zoom="3.3671875"
     inkscape:cx="64"
     inkscape:cy="63.851508"
     inkscape:window-width="1894"
     inkscape:window-height="1054"
     inkscape:window-x="0"
     inkscape:window-y="0"
     inkscape:window-maximized="1"
     inkscape:current-layer="svg1" />
  <path
     fill-rule="evenodd"
     clip-rule="evenodd"
     fill="#dd732a"
     d="m 17.19726,53.890104 -2.657585,2.127884 c -0.393564,-1.601482 -0.03795,-2.999995 0.375412,-4.353953 0.853134,-2.797849 2.358081,-5.268966 4.072599,-7.617147 0.621285,-0.851483 1.064355,-1.693891 1.045378,-2.840754 -0.07013,-4.058573 0.359735,-8.067641 1.750821,-11.916644 0.70957,-1.962867 1.668314,-3.788771 3.306925,-5.374577 0.646038,3.156759 1.231846,6.190583 2.958741,8.466156 1.245871,-1.104784 2.492569,-2.155937 3.677386,-3.271446 7.115498,-6.692232 15.49337,-10.873743 25.150117,-12.249978 12.113013,-1.726895 23.292035,0.871287 33.440532,7.782164 0.958744,0.653464 2.0594,1.099833 3.104778,1.618809 4.806097,2.386959 8.433976,5.938932 10.706246,10.824237 0.38119,0.817655 0.67657,1.674915 1.01238,2.513197 l 0.30198,-0.05198 -1.30693,-7.837444 c 5.23927,7.352296 6.8919,15.512346 7.33909,24.075036 0.97856,-1.365508 0.97112,-2.982666 1.50083,-4.529694 0.17409,1.12376 0.3919,2.243396 0.51485,3.372106 0.48349,4.436461 -0.37707,8.740084 -1.19389,13.073408 C 110.36705,77.934613 105.93389,86.994002 99.252386,94.8661 91.64514,103.82978 82.142683,109.81492 70.256567,111.2357 53.009074,113.29676 38.519828,107.75468 26.817704,94.928806 21.202204,88.777828 17.488514,81.617774 15.825975,73.4635 14.568552,67.291068 14.871357,61.152467 16.920033,55.148353 l 0.320956,-0.92079 c 0.01815,-0.05364 -0.0132,-0.123763 -0.04374,-0.337459 z m 78.082362,-8.184803 0.326732,-0.282178 3.68316,2.844055 c -0.04868,-0.863035 -0.01157,-1.77145 -0.160885,-2.64686 -0.655943,-3.818475 -2.970296,-6.586621 -5.846528,-8.96203 -3.604778,-2.976892 -7.741735,-5.024743 -12.028855,-6.801967 -0.421617,-0.174917 -0.834982,-0.370461 -1.250824,-0.556104 l 0.05115,-0.430693 6.043718,-0.358085 C 83.864626,24.827452 80.028,23.799401 76.140219,22.741647 l 0.484322,-0.256599 C 68.745018,20.024657 60.935627,19.831587 53.067656,21.844785 45.748362,23.717718 34.759109,30.390148 33.061092,33.989976 l 0.495049,-0.120461 c 2.76237,-0.678216 5.519791,-0.864685 8.301964,-0.05776 0.302805,0.08745 0.807754,-0.113036 1.06848,-0.347359 2.606431,-2.334155 5.50494,-4.161708 8.86302,-5.195535 1.057754,-0.325906 2.148511,-0.542904 3.224416,-0.809404 -0.08911,0.36386 -0.251649,0.512375 -0.429868,0.635313 -3.48184,2.392734 -5.828372,5.539592 -6.482661,9.799486 -0.03548,0.233498 0,0.584157 0.14934,0.725246 1.542077,1.450492 3.072602,2.918311 4.697186,4.270619 0.56188,0.466995 1.353958,0.780526 2.082505,0.896037 1.407588,0.223598 2.845704,0.265676 4.272269,0.366337 0.877061,0.06188 1.444716,0.681516 1.13036,1.391912 -0.466169,1.057753 -0.975246,2.038774 -2.045374,2.75247 -2.02475,1.351482 -3.899334,2.929862 -5.8523,4.391081 -0.487623,0.36551 -0.5066,0.697193 -0.2533,1.236795 0.467821,0.996698 0.915015,2.018974 1.215343,3.075077 0.379539,1.334982 0.50825,2.715342 0.161717,4.127055 -1.103134,-0.243399 -2.113857,-0.483497 -3.130356,-0.685642 -1.021451,-0.20297 -2.051153,-0.361385 -3.075903,-0.550329 -1.280525,-0.235149 -2.372932,0.213696 -3.029697,1.257424 -0.76155,1.211218 -0.773926,2.476892 0.04044,3.514845 1.659237,2.113031 3.537947,4.008243 5.75659,5.537943 1.835805,1.267323 3.899332,1.971943 6.095697,1.501647 1.528876,-0.326731 3.026397,-0.981021 4.417484,-1.716993 4.217814,-2.228544 8.976056,-1.476895 11.894368,1.991746 0.522276,0.619634 0.83498,1.322604 0.391913,2.050325 -0.425742,0.698844 -1.140262,0.863034 -1.961219,0.65759 -0.853133,-0.213697 -1.64191,-0.06683 -2.412535,0.444718 -2.033825,1.349833 -4.031346,2.787123 -6.188108,3.914184 -3.474416,1.816003 -7.260712,2.427388 -11.17077,2.282175 -0.402641,-0.0132 -0.80528,0 -1.349009,0 0.20132,0.238447 0.273102,0.339933 0.361385,0.424916 2.824253,2.738443 6.061871,4.843225 9.798662,6.075071 4.114679,1.356434 8.320117,1.911712 12.589086,0.732672 4.784644,-1.320955 8.542887,-4.219464 11.757403,-7.881998 1.295377,-1.476895 2.470293,-3.058575 3.700489,-4.591576 l 0.307754,0.06683 -1.085806,7.410052 c 5.898504,-7.216159 6.086622,-15.466143 5.256591,-24.164146 1.697191,1.89026 2.212042,4.106428 3.184813,6.327545 1.986794,-6.897676 1.004123,-13.465321 -0.528878,-20.020589 z"
     id="path1"
     style="stroke-width:0.825081" />
</svg>
