<svg viewBox="0 0 128 128" xmlns="http://www.w3.org/2000/svg"><path fill-rule="evenodd" clip-rule="evenodd" fill="#dd732a" d="m17.197 53.89-2.657 2.128c-.394-1.601-.038-3 .375-4.354.853-2.798 2.358-5.269 4.073-7.617.621-.852 1.064-1.694 1.045-2.84-.07-4.06.36-8.069 1.75-11.918.71-1.962 1.67-3.788 3.308-5.374.646 3.157 1.232 6.19 2.959 8.466 1.245-1.105 2.492-2.156 3.677-3.271 7.115-6.693 15.493-10.874 25.15-12.25 12.113-1.727 23.292.87 33.44 7.782.96.653 2.06 1.1 3.105 1.619 4.806 2.387 8.434 5.939 10.707 10.824.38.818.676 1.675 1.012 2.513l.302-.052-1.307-7.837c5.24 7.352 6.892 15.512 7.34 24.075.978-1.366.97-2.983 1.5-4.53.174 1.124.392 2.243.515 3.372.483 4.437-.377 8.74-1.194 13.073-1.93 10.236-6.363 19.295-13.045 27.167-7.607 8.964-17.11 14.949-28.995 16.37-17.248 2.06-31.737-3.481-43.44-16.307-5.615-6.151-9.328-13.311-10.991-21.466-1.257-6.172-.955-12.31 1.094-18.315l.321-.92c.018-.054-.013-.124-.044-.338zm78.083-8.185.326-.282 3.684 2.844c-.05-.863-.012-1.771-.161-2.647-.656-3.818-2.97-6.586-5.847-8.962-3.605-2.977-7.742-5.024-12.029-6.802-.421-.175-.835-.37-1.25-.556l.05-.43 6.044-.359c-2.232-3.684-6.069-4.712-9.957-5.77l.485-.256c-7.88-2.46-15.69-2.653-23.557-.64-7.32 1.873-18.309 8.545-20.007 12.145l.495-.12c2.763-.679 5.52-.865 8.302-.058.303.087.808-.113 1.069-.348 2.606-2.334 5.505-4.161 8.863-5.195 1.057-.326 2.148-.543 3.224-.81-.09.364-.252.513-.43.636-3.482 2.393-5.828 5.54-6.483 9.8-.035.233 0 .583.15.725 1.542 1.45 3.072 2.918 4.697 4.27.562.467 1.354.78 2.083.896 1.407.224 2.845.266 4.272.366.877.062 1.445.682 1.13 1.392-.466 1.058-.975 2.04-2.045 2.753-2.025 1.351-3.9 2.93-5.853 4.391-.487.365-.506.697-.253 1.237.468.996.915 2.019 1.216 3.075.38 1.335.508 2.715.161 4.127-1.103-.244-2.114-.484-3.13-.686-1.022-.203-2.051-.361-3.076-.55-1.28-.235-2.373.214-3.03 1.257-.761 1.212-.774 2.477.04 3.515 1.66 2.113 3.539 4.008 5.757 5.538 1.836 1.267 3.9 1.972 6.096 1.502 1.529-.327 3.026-.981 4.417-1.717 4.218-2.229 8.977-1.477 11.895 1.992.522.62.835 1.322.392 2.05-.426.699-1.14.863-1.961.657-.854-.213-1.642-.066-2.413.445-2.034 1.35-4.031 2.787-6.188 3.914-3.475 1.816-7.26 2.428-11.17 2.283-.403-.014-.806 0-1.35 0 .201.238.273.34.362.424 2.824 2.739 6.061 4.844 9.798 6.076 4.115 1.356 8.32 1.911 12.59.732 4.784-1.32 8.542-4.22 11.757-7.882 1.295-1.477 2.47-3.058 3.7-4.591l.308.066-1.086 7.41c5.899-7.216 6.087-15.466 5.257-24.164 1.697 1.89 2.212 4.107 3.185 6.328 1.986-6.898 1.004-13.465-.53-20.02z" style="stroke-width:.825081"/></svg>