<?xml version="1.0" encoding="UTF-8" standalone="no"?>
<svg
   height="2419"
   viewBox="0 0 175 175"
   width="2500"
   version="1.1"
   id="svg4"
   sodipodi:docname="git.svg"
   inkscape:version="1.3.2 (091e20ef0f, 2023-11-25, custom)"
   xmlns:inkscape="http://www.inkscape.org/namespaces/inkscape"
   xmlns:sodipodi="http://sodipodi.sourceforge.net/DTD/sodipodi-0.dtd"
   xmlns="http://www.w3.org/2000/svg"
   xmlns:svg="http://www.w3.org/2000/svg">
  <defs
     id="defs4" />
  <sodipodi:namedview
     id="namedview4"
     pagecolor="#ffffff"
     bordercolor="#000000"
     borderopacity="0.25"
     inkscape:showpageshadow="2"
     inkscape:pageopacity="0.0"
     inkscape:pagecheckerboard="0"
     inkscape:deskcolor="#d1d1d1"
     inkscape:zoom="0.1724"
     inkscape:cx="1250"
     inkscape:cy="1212.297"
     inkscape:window-width="1894"
     inkscape:window-height="1054"
     inkscape:window-x="0"
     inkscape:window-y="0"
     inkscape:window-maximized="1"
     inkscape:current-layer="svg4" />
  <path
     d="m 83.156933,69.808589 v 12.55 l -30.11,-30.1 10,-10 15.19,15.2 a 9.75,9.75 0 0 0 -0.61,3.43 9.91,9.91 0 0 0 5.53,8.92 z m 9.23,1.81 4.68,4.68 -4.68,4.69 z m 28.639997,-19.26 -18.09,18.07 -6.089997,-6.07 a 9.83,9.83 0 0 0 0.54,-4.67 10,10 0 0 0 -9.39,-8.68 9.64,9.64 0 0 0 -3.89,0.6 l -15.2,-15.25 12.88,-12.84 a 7.36,7.36 0 0 1 10.42,0 z"
     fill="#ff8080"
     id="path1" />
  <path
     d="m 77.176933,93.888589 -27.36,27.360001 -27.15,-26.890001 a 8.49,8.49 0 0 1 0.09,-11.86 l 28,-28 26.42,26.51 a 9.12,9.12 0 0 1 0,12.88 z"
     fill="#80b3ff"
     id="path2" />
  <path
     d="m 92.436933,97.148586 v 11.490004 a 9.46,9.46 0 0 1 4.46,9.88 9.32,9.32 0 0 1 -7.42,7.53 9.47,9.47 0 0 1 -6.32,-17.69 V 95.658589 a 1,1 0 0 0 -1.63,-0.68 l -28.67,28.660001 29.5,29.5 a 7.33,7.33 0 0 0 10.36,0 l 27.829997,-27.78 z"
     fill="#ffe680"
     id="path3" />
  <path
     d="m 150.97693,95.808589 -26.54,26.550001 -28.579997,-28.580001 a 8.56,8.56 0 0 1 0,-12.1 l 3.29,-3.32 7.289997,7.27 a 9.92,9.92 0 1 0 5.88,-5.88 l -7.25,-7.24 18.54,-18.53 27.37,27.38 a 10.19,10.19 0 0 1 0,14.45 z"
     fill="#8dd35f"
     id="path4" />
</svg>
