<svg width="2500" height="2500" viewBox="0 0 192.756 192.756" xmlns="http://www.w3.org/2000/svg"><g fill-rule="evenodd" clip-rule="evenodd"><path fill="#fff" d="m75.988 58.383-.252-17.151 10.205-5.977 15.153-10.205 6.23-.253 6.48 6.966 3.492 23.148-4.733 8.459-19.656-.505z"/><path fill="#fff" d="m55.828 107.414 5.22-14.688L71.253 80.54l5.22-10.457 2.25-3.474 37.311-5.724 7.471 11.7 20.898 50.001-7.22 8.944-18.917 31.627-4.461.989-34.596.989-24.137-26.872-3.978-22.39z"/><path d="M103.598 69.346s-1.242-.253 2.232-1.01c3.492-.736 3.51-1.474 4.48-2.483.99-.99 1.496-3.24 1.496-5.724 0-2.483 1.242-9.701.988-11.68-.231-1.999-4.481-9.45-6.208-10.458-1.746-.99-21.149-2.736-21.149-2.736l-5.976 4.735-4.482 4.21 1.009 13.446s-1.261 4.23-1.009 5.956c.253 1.747 2.755 3.745 3.744 4.735.99 1.01 4.715 5.006 5.956 6.228 1.261 1.242 1.514 2.483 4.482 1.493 2.988-.99 4.734-.99 6.986-2.735 2.231-1.747 7.451-3.977 7.451-3.977z" fill="#f6d330"/><path d="M92.15 48.198c.757-2 1.746-5.724 3.473-6.966 1.746-1.242 5.492-2.27 7.724-1.999 2.25.253 6.46 2.484 7.469 4.23.99 1.746.99 8.711.99 8.711l-.505 5.724-3.473-.252-7.47-2.989h-1.241s-1.242.485-4.987-1.493c-3.726-1.998-2.737-2.969-1.98-4.966zm-7.955 5.47c.117-.116.35-.271.66-.446 1.513-.834 4.811-2.056 4.811-2.056s3.22-8.188.485-11.429c-2.716-3.24-8.691-2.735-8.691-2.735s-6.46 3.726-6.228 5.22c.252 1.494.504 6.712.756 7.45.234.757 1.242 8.712 1.242 8.712l2.232-.99 3.24-2.483s.755-.486 1.493-1.242z" fill="#fff"/><path d="m131.713 128.814 3.608.272c.524.04 1.047.057 1.572.077 2.677.097 5.026.505 7.529.816 1.65.195 4.385 1.242 4.58 3.318.27 3.066-.622 6.441 1.977 7.703 2.659 1.805 8.595 5.976 8.595 5.976l1.747 3.22-5.218 4.735-25.632 15.425-11.68-3.977v-9.45l.485-12.688-1.242-11.448 1.98-4.482 4.985-1.495zm-74.118-5.588c-.253-.233-4.793 1.107-5.084 1.165-2.114.31-4.792 1.765-4.792 4.075 0 1.183-.096 2.406-.64 3.473-.427.834-1.397 2.095-1.378 2.367-.33.912-.93 2.192-1.765 2.736-.97.097-5.278.486-5.278.486h-3.745l-2.231 2.715 1.746 7.238-.505 5.705-1.727 6.48 4.21 2.231 31.86 8.46 7.217-2.232 3.725-9.216-.757-3.473-3.472-6.966s-15.134-21.984-17.384-25.244z" fill="#f6d330"/><path d="M73.815 45.131c-.524-17.364 6.248-25.03 20.314-25.281 14.048-.272 22.856 7.14 24.66 16.861 1.785 9.701.758 22.487 4.347 29.124 3.57 6.654 5.86 11.757 12.01 19.421 6.131 7.664 9.953 15.464 11.74 24.932 1.802 9.45 2.813 13.912-1.787 18.781-4.597 4.85-12.766 12.767-18.898 3.823-3.084-4.482-3.414-10.05 1.787-11.233 3.317-.777 5.703-.525 8.168.756 2.484 1.28 3.066.678.097-1.533-2.99-2.212-3.59-.175-2.562-3.745 1.03-3.571 2.368-9.993-.426-17.055-1.3-3.26-5.704-12.185-9.838-14.378-.369-.213-1.454-.659-.717.253 1.106 1.378 7.062 10.147 8.75 15.366 1.805 5.608 2.056 10.964 1.126 14.358-.93 3.415-2.561 4.773-4.52 4.773-1.96 0-3.745.931-3.745-3.57 0-4.52.466-11.331-1.96-17.094-2.425-5.743-5.375-9.701-6.014-12.127-.621-2.425-2.038-8.944-4.967-12.65-2.95-3.706-4.23-6.131-2.698-10.36 1.533-4.21.387-5.356-2.677-6.248-3.066-.892-7.16-2.173-8.169-4.23-1.028-2.037-.387-6.13 1.902-7.14 2.308-1.028 6.13.369 6.267 3.319.136 2.93-1.281 4.462-.891 5.102.387.64 2.424 1.67 3.453.525 1.008-1.165 1.281-4.735.252-8.053-1.03-3.318-1.533-5.627-5.24-6.384-3.705-.776-5.373-.524-7.159 1.785-1.785 2.29-2.56 5.995-2.037 8.693.504 2.677-.524 1.144-2.309 1.008-1.785-.117-1.28-.252-3.065-.117-1.786.117-1.145-1.028-1.281-2.949-.117-1.92-.369-5.878-3.066-7.411-2.678-1.533-7.276.253-7.16 6.656.136 6.383 2.309 9.448 3.59 7.14 1.28-2.29.64-1.145-.64-2.174-1.28-1.008-2.173-5.238-.776-6.5 1.416-1.28 3.066-1.28 3.977-.523.893.776 2.29 3.338 2.038 4.986-.253 1.669-.389 1.786-2.038 2.95-1.668 1.144-2.308 2.172-4.229 3.433-1.921 1.28-2.677 4.23-1.144 4.987 1.533.776 1.669.64 2.93 2.562 1.28 1.92 3.453 2.813 8.827 1.92 5.356-.892 7.567-2.172 11.623-3.59 2.95-1.009 1.92-.892 2.95-2.036 1.008-1.145 2.677.504 1.144 1.533-1.533 1.028-4.988 2.037-7.547 2.93-2.543.911-5.492 3.453-10.847 3.2-5.374-.252-1.669-.135-3.337-.252-1.65-.136-2.426.117-.64 1.397 1.804 1.281 1.668 1.669 3.201 2.173 1.533.524 3.57.524 6.015-.368 2.425-.912 8.557-3.59 10.478-4.87 1.902-1.28 3.434.388 1.533 1.668-1.92 1.28-2.445.893-4.23 2.037-1.785 1.165-5.103 3.066-7.276 5.122-2.173 2.037-2.677 2.173-5.375 2.29-2.677.136-4.346-2.677-5.49-3.958-1.145-1.28-1.03-2.037-2.426-3.57-1.397-1.533-1.533-1.165-1.786.504-.252 1.669-2.173 5.879-3.841 8.693-1.65 2.813-1.786 6.267-1.533 8.692.252 2.426-.388 2.677-2.289 5.49-1.921 2.814-5.123 11.118-5.627 13.796-.505 2.677-1.144 8.187-.893 11.37.253 3.201-.64 3.841-2.949 1.668-2.29-2.173-3.066-4.598-2.93-7.8.117-2.735.486-4.656.835-5.665.35-1.008.02-1.707-.718-.465-1.572 2.716-1.65 7.412-1.26 9.08.368 1.65.504 4.599 4.714 8.556 4.23 3.958 10.36 9.45 15.464 13.155 5.122 3.706 6.908 8.305-.64 11.623 4.735 6.403 7.295 9.72 5.239 13.93 4.23-2.425 2.6-8.148.563-9.682-2.058-1.533-.816-2.715.97-1.55 1.785 1.143 2.425 3.433 9.468 3.316 7.023-.135 14.59-.833 18.822-6.984 4.21-6.132 5.025-.97 3.996 2.62-1.009 3.57-3.532 11.64.426 10.884.506-4.735 1.67-8.828 1.67-13.931 0-5.123.504-7.587.117-14.998-.39-7.14 2.696-7.626 5.878-7.626 3.202 0 2.172 2.056.136 1.92-2.056-.135-4.212.641-4.346 5.88-.136 5.239 0 4.734.891 9.45.893 4.734 1.03 6.13.254 11.37-.757 5.239-1.398 8.05 2.056 11.253 3.434 3.202 8.672 2.29 11.37.252 2.677-2.037 7.78-6.77 12.378-8.304 4.619-1.533 9.47-2.677 12.03-5.239 2.542-2.56 1.901-4.346-.777-5.744-2.677-1.416-5.24-.776-7.275-3.065-2.058-2.309-3.067-7.413-2.31-10.109.776-2.677 1.669-1.533 1.669.389 0 1.92.117 3.705 2.038 6.13 1.92 2.425 3.705 3.59 6.771 5.491 3.066 1.921 4.986 4.987 1.144 7.683-3.822 2.678-5.996 4.211-9.197 5.491-3.183 1.282-8.42 4.346-11.624 7.53-3.201 3.201-4.986 6.014-11.252 6.014-6.248 0-9.12-1.514-10.981-5.24-1.281-2.56-1.922-2.171-4.851-2.307-2.95-.117-12.787-.253-20.45-.117-7.665.117-10.225 1.397-13.68 4.21-3.433 2.813-4.714 4.987-11.233 2.813s-9.973-4.598-19.674-6.519c-9.721-1.92-4.482-1.028-10.362-2.309-5.878-1.26-5.49-4.075-4.714-6.382.757-2.29 2.677-5.88 1.009-10.594-1.65-4.736-1.009-9.586 3.453-9.586 4.482 0 8.693.893 10.477-4.987 1.785-5.878 2.309-1.28 1.785.253-.504 1.533-.756 5.743-4.715 6.384-3.958.64-4.85-.253-7.295-.253-2.425 0-3.434 1.669-2.173 4.482 1.28 2.812 2.696 5.743 2.444 8.168-.271 2.425-.524 3.319-2.308 5.627-1.786 2.29-1.533 3.454 1.668 4.21 3.182.777 8.945 2.31 14.3 3.59 5.374 1.26 5.763 1.26 15.075 3.706 9.333 2.425 11.895-1.921 12.651-7.16.776-5.24-2.813-10.225-6.13-15.212-3.319-4.987-6.89-10.727-11.237-15.967-4.346-5.238-6.908-5.627-9.08-4.481-2.174 1.164-2.562.911-2.679-2.037-.136-2.93-.388-4.85 2.037-9.197 2.426-4.346 4.599-9.081 7.16-16.357 2.56-7.276 4.85-8.692 9.197-14.959 4.347-6.247 2.426-3.823 5.491-8.033 3.066-4.229 2.173-3.454 1.921-10.108-.252-6.637-.504-10.478-.756-19.171zM61.61 97.091c.66.796 1.592-1.086 2.562-1.804a3.326 3.326 0 0 0 1.048-3.046c-.097-.601-1.068-.408-1.262-.194-.6.6-.465 1.572-.892 2.406-.485 1.008-2.115 1.824-1.456 2.638zm54.93-26.698c1.377 1.164 2.23 2.174 2.987.447.777-1.727.777-2.426-1.086-3.124-1.843-.719-2.677-1.475-3.512-2.426-.833-.97-1.124.68-.446 2.29.834 1.98 1.319 2.212 2.056 2.813zM87.745 54.54c-.951-.194-2.096-.116-2.737.64-.252.253-.135.97.31 1.165.582.252.97-.33 1.087-.776.059-.194.136-.446.33-.504.253-.136.621-.02.893-.136.311-.117.194-.389.117-.389zm4.52.175c.39.582 1.088.582 1.67.835.31.136.95.33 1.144-.117.447-1.416-1.475-.97-2.367-.97-.194 0-.64-.058-.446.252zm9.315-6.19c.873.04 2.057 1.592 2.172 3.396.019.272.757.252.912-.019.409-.717.118-1.513-.076-2.367-.157-.698-.99-1.416-1.69-1.727-.465-.233-.95-.31-1.571-.233-.155.078-.698.892.253.95zm-19.034-.445c-.797.057-.505.678-.466 1.183 1.106.62 1.202 2.017 1.435 3.124.019.426.66.233.717.097.486-.893-.116-1.901-.329-2.949-.194-.543-.562-1.164-1.067-1.533-.077-.077-.214.078-.29.078zm24.407-19.578c-.796-.64-2.038-.892-2.405.155-.388.893-.234 1.805-.448 2.775 0 .31-.388.388-.6.679-.311.368-.234.834-.079.97.739.757 2.096-.738 3.086-1.261.737-.466 1.803.136 2.62-.388.232-.155.309-.524.076-.815-.523-.912-1.435-1.435-2.25-2.115z"/><path d="M129.965 130.095c.118-.524.388-1.552.893-1.707.175-.058.33.02.388.195.116.329-.234 2.212-.097 2.638.155.446.678.388 1.048.272.872-.292 1.378-1.32 1.338-1.416 0-.04-.02-.04-.057-.04-.136.04-.254.525-.641.64-.252.078-.446.04-.524-.212-.077-.272.253-2.213.096-2.66-.134-.445-.582-.562-1.008-.426-.951.31-1.358 1.765-1.61 2.62h-.02l.136-2-1.183.39-.058 4.132 1.106-.37c.02-.717.058-1.532.193-2.056zm5.124.446c.95-.31 1.376-1.435 1.337-1.572-.018-.038-.038-.058-.077-.058-.078.04-.251.68-.796.853-.233.079-.446.02-.503-.135-.078-.233-.02-.64-.02-.99l.04-1.863 1.298-.426-.018-.447-1.3.426.058-1.765-1.163.66-.06 3.939c0 .426-.037.795.04.99.154.505.678.563 1.164.388z"/></g></svg>