<svg xmlns="http://www.w3.org/2000/svg" width="256" height="256" viewBox="-50 -50 298.525 290.877" xmlns:v="https://vecta.io/nano"><defs><linearGradient x1="77.499" y1="-.999" x2="77.499" y2="726.998" id="A" gradientUnits="userSpaceOnUse"><stop stop-color="#16b0ed" stop-opacity=".8" offset="0%"/><stop stop-color="#0f59b2" stop-opacity=".837" offset="100%"/></linearGradient><linearGradient x1="521.002" y1="-1" x2="521.002" y2="727" id="B" gradientUnits="userSpaceOnUse"><stop stop-color="#7db643" offset="0%"/><stop stop-color="#367533" offset="100%"/></linearGradient><linearGradient x1="300.001" y1="0" x2="300.001" y2="728.004" id="C" gradientUnits="userSpaceOnUse"><stop stop-color="#88c649" stop-opacity=".8" offset="0%"/><stop stop-color="#439240" stop-opacity=".84" offset="100%"/></linearGradient></defs><g fill-rule="evenodd"><path d="M0 155.57 155-1v728L0 572.238z" fill="url(#A)" transform="matrix(.3141 0 0 .3141 6.704 -18.455)"/><path d="M443.06 156.982 600-1l-3.181 728L442 572.22z" fill="url(#B)" transform="matrix(-.3141 0 0 .3141 334.003 -18.455)"/><path d="M154.986 0 558 615.19 445.225 728 42 114.172z" fill="url(#C)" transform="matrix(.3141 0 0 .3141 6.704 -18.455)"/><path d="M55.39 70.698l-.067 7.591-38.882-57.572 3.6-3.678z" fill-opacity=".13" fill="#000"/></g></svg>