<svg width="602" height="734" viewBox="-50 -50 702 834" xmlns="http://www.w3.org/2000/svg"><defs><linearGradient x1="167.958" y1="-.461" x2="167.958" y2="335.455" id="a" gradientTransform="scale(.46142 2.1672)" gradientUnits="userSpaceOnUse"><stop stop-color="#16B0ED" stop-opacity=".8" offset="0%"/><stop stop-color="#0F59B2" stop-opacity=".837" offset="100%"/></linearGradient><linearGradient x1="1118.343" y1="-.466" x2="1118.343" y2="338.686" id="b" gradientTransform="scale(.46587 2.14653)" gradientUnits="userSpaceOnUse"><stop stop-color="#7DB643" offset="0%"/><stop stop-color="#367533" offset="100%"/></linearGradient><linearGradient x1="356.338" y1="0" x2="356.338" y2="612.901" id="c" gradientTransform="scale(.8419 1.1878)" gradientUnits="userSpaceOnUse"><stop stop-color="#88C649" stop-opacity=".8" offset="0%"/><stop stop-color="#439240" stop-opacity=".84" offset="100%"/></linearGradient></defs><g fill="none" fill-rule="evenodd"><path d="M0 155.57 155-1v728L0 572.238z" fill="url(#a)" style="fill:url(#a)" transform="matrix(.95313 0 0 .95313 16.06 20.036)"/><path d="M443.06 156.982 600-1l-3.181 728L442 572.22z" fill="url(#b)" transform="matrix(-.95313 0 0 .95313 1009.225 20.036)" style="fill:url(#b)"/><path d="M154.986 0 558 615.19 445.225 728 42 114.172z" fill="url(#c)" style="fill:url(#c)" transform="matrix(.95313 0 0 .95313 16.06 20.036)"/><path d="m163.796 290.566-.204 23.035-117.985-174.7 10.925-11.16z" fill-opacity=".13" fill="#000"/></g></svg>