<?xml version="1.0" encoding="UTF-8" standalone="no"?>
<svg
   width="2500"
   height="2500"
   viewBox="0 0 192.756 192.756"
   version="1.1"
   id="svg1"
   sodipodi:docname="ssh.svg"
   inkscape:version="1.3.2 (091e20ef0f, 2023-11-25, custom)"
   xmlns:inkscape="http://www.inkscape.org/namespaces/inkscape"
   xmlns:sodipodi="http://sodipodi.sourceforge.net/DTD/sodipodi-0.dtd"
   xmlns="http://www.w3.org/2000/svg"
   xmlns:svg="http://www.w3.org/2000/svg">
  <defs
     id="defs1" />
  <sodipodi:namedview
     id="namedview1"
     pagecolor="#ffffff"
     bordercolor="#000000"
     borderopacity="0.25"
     inkscape:showpageshadow="2"
     inkscape:pageopacity="0.0"
     inkscape:pagecheckerboard="0"
     inkscape:deskcolor="#d1d1d1"
     inkscape:zoom="0.1724"
     inkscape:cx="1250"
     inkscape:cy="1252.9002"
     inkscape:window-width="1894"
     inkscape:window-height="1054"
     inkscape:window-x="0"
     inkscape:window-y="0"
     inkscape:window-maximized="1"
     inkscape:current-layer="svg1" />
  <g
     fill-rule="evenodd"
     clip-rule="evenodd"
     id="g1"
     transform="matrix(0.80966304,0,0,0.80966304,18.344391,18.344371)">
    <path
       d="m 47.535,53.35 c 2.409,0 3.15,2.365 3.204,4.076 0.029,1.331 -0.83,3.926 -3,3.926 -2.155,0 -3.203,-2.556 -3.203,-4.028 10e-4,-1.405 0.8,-3.974 2.999,-3.974 z m 11.304,0.999 c 1.925,0 2.344,2.486 2.344,3.447 0,1.244 -0.677,3.73 -2.589,3.755 -1.935,0.014 -2.462,-2.737 -2.462,-3.501 0,-1.17 0.683,-3.701 2.707,-3.701 z M 34.637,57.7 c 2.639,0 3.896,2.448 3.896,4.348 0,1.844 -1.229,4.204 -3.628,4.204 -2.579,0 -3.916,-2.666 -3.916,-4.5 10e-4,-1.903 1.254,-4.052 3.648,-4.052 z m 32.628,1.497 c 1.414,0 1.818,2.047 1.818,2.769 0,0.877 -0.55,3.584 -2.315,3.584 -1.522,0 -1.829,-1.912 -1.829,-2.774 0,-0.873 0.59,-3.579 2.326,-3.579 z m 5.618,7.153 c 1.188,0 1.457,1.794 1.457,2.327 0,0.798 -0.565,3.32 -2.126,3.32 -1.232,0 -1.478,-1.555 -1.478,-2.218 0,-0.806 0.546,-3.429 2.147,-3.429 z m -50.85,1.745 c 2.633,0 4.402,1.906 4.402,4.403 0,2.604 -2.14,4.458 -4.495,4.458 -2.512,0 -4.403,-2.122 -4.403,-4.458 0,-2.497 2.038,-4.403 4.496,-4.403 z m -9.196,15.452 c 2.242,0 4.294,1.512 4.294,3.985 0,3.262 -3.241,4.866 -5.548,4.866 -2.365,0 -4.296,-1.609 -4.296,-4.047 0,-3.164 3.121,-4.804 5.55,-4.804 z m -3.795,17.359 c 1.965,0 3.794,1.064 3.794,3.322 0,3.355 -3.731,5.178 -6.096,5.178 -1.829,0 -3.906,-0.975 -3.906,-3.301 0,-2.492 2.633,-4.914 5.477,-5.148 0.492,-0.041 0.6,-0.051 0.731,-0.051 z m 2.346,15.401 c 1.57,0 2.998,0.779 2.998,2.678 0,3.336 -4.188,5.324 -6.343,5.324 -1.697,0 -2.907,-0.811 -2.907,-2.604 0,-3.16 3.96,-5.398 6.252,-5.398 z m 44.725,9.099 c 0.774,0 0.97,0.6 0.97,1.127 0,1.135 -1.342,3.875 -3.15,3.875 -0.83,0 -0.951,-0.58 -0.951,-1.146 0,-1.096 1.303,-3.856 3.131,-3.856 z m -37.782,1.701 c 1.302,0 2.307,0.58 2.307,2.049 0,2.984 -3.638,5.402 -5.984,5.402 -1.262,0 -2.168,-0.678 -2.168,-2.072 0,-2.834 3.416,-5.379 5.845,-5.379 z m 29.204,3.497 c 0.97,0 1.146,0.672 1.146,1.307 0,1.439 -1.877,4.229 -3.686,4.229 -0.766,0 -1.107,-0.465 -1.107,-1.209 -10e-4,-1.466 1.653,-4.327 3.647,-4.327 z m -19.724,1.906 c 0.639,0 1.385,0.199 1.722,1.117 v 1.15 c 0,0.127 -0.245,0.727 -0.444,1.113 -0.97,1.973 -3.16,3.32 -4.72,3.32 -1.209,0 -1.727,-0.553 -1.727,-1.648 0,-2.175 2.965,-5.052 5.169,-5.052 z m 10.196,0.849 c 0.868,0 1.283,0.668 1.283,1.322 0,1.203 -1.015,3.045 -2.565,4.086 -1.156,0.775 -2.116,0.76 -2.653,0.408 -0.507,-0.336 -0.536,-0.887 -0.536,-1.166 0,-1.9 2.419,-4.65 4.471,-4.65 z M 155.141,68.338 h 13.473 a 0.364,0.364 0 0 1 0.102,0.235 l -3.086,13.837 -0.094,0.351 0.205,-0.224 c 2.297,-2.34 7.555,-4.535 11.479,-4.608 2.453,-0.039 0.654,-0.068 3.053,0 3.316,0.092 9.65,2.409 9.65,7.314 0,0 -0.277,2.078 -0.424,2.77 -0.029,0.234 -4.287,20.759 -4.287,20.759 h -13.643 c 0.549,-2.674 3.627,-15.897 3.627,-17.238 0,-2.95 -2.199,-3.673 -4.359,-3.673 -4.9,0 -6.758,2.712 -8.402,9.616 -0.941,3.896 -1.633,7.463 -2.457,11.299 h -13.693 c -0.002,0.001 6.832,-31.095 8.856,-40.438 z M 135,77.745 c 4.721,0.133 13.473,1.507 13.473,8.334 0,0.605 -0.193,1.117 -0.229,1.691 h -15.189 c 0.117,-2.662 -3.242,-2.618 -4.803,-2.618 -0.961,0 -5.324,-0.078 -5.324,2.311 0,1.205 2,1.545 2.443,1.599 2.92,0.303 8.762,0.874 8.957,0.874 l 1.137,0.137 c 3.959,0.55 12.361,0.423 12.086,6.89 -0.408,9.801 -9.297,12.303 -17.49,12.854 l -6.129,0.146 -4.053,-0.094 c -2.355,-0.125 -14.701,-0.633 -14.691,-7.922 v -2.406 h 16.111 c -0.312,2.049 2.105,2.898 3.529,2.898 0,0 0.902,0.121 2.762,0 1.861,-0.119 3.904,-0.82 3.904,-2.781 0,-1.148 -1,-1.424 -2.043,-1.521 -3.617,-0.371 -7.338,-0.789 -11.041,-1.16 -4.729,-0.458 -10.062,-0.969 -10.062,-6.733 0,-10.182 10.674,-12.469 17.793,-12.605 7.109,-0.143 3.07,-0.07 8.859,0.106 z M 92.041,77.652 c 4.774,0.23 13.489,1.513 13.489,8.334 0,0.609 -0.211,1.122 -0.24,1.691 H 90.1 c 0.121,-2.652 -3.243,-2.623 -4.808,-2.623 -0.96,0 -5.311,-0.068 -5.311,2.322 0,1.209 1.985,1.545 2.429,1.599 2.926,0.308 8.762,0.878 8.962,0.878 l 1.082,0.01 c 3.785,0.409 12.4,0.243 12.143,7.012 -0.381,9.807 -9.28,12.273 -17.486,12.809 l -6.135,0.195 -3.979,-0.039 C 74.7,109.563 62.242,109.572 62.242,101.863 v -2.408 h 16.096 c -0.297,2.047 2.112,2.895 3.536,2.895 0,0 0.507,0.207 2.76,0 2.262,-0.195 3.905,-0.814 3.905,-2.777 0,-1.156 -1.004,-1.424 -2.047,-1.521 -3.613,-0.367 -7.334,-0.791 -11.036,-1.162 -4.734,-0.457 -10.064,-0.974 -10.064,-6.734 0,-10.186 10.61,-12.331 17.721,-12.503 7.108,-0.167 8.928,-0.001 8.928,-0.001 z m -25.024,40.059 c -0.064,-1.174 -0.664,-2.072 -1.874,-2.072 -1.433,0 -2.658,1.316 -2.945,3.578 -0.268,2.273 0.629,3.59 2.068,3.59 1.239,0 2.078,-0.922 2.409,-2.057 l -0.654,-0.176 c -0.268,0.809 -0.795,1.637 -1.692,1.637 -0.951,0 -1.653,-0.902 -1.395,-2.994 0.258,-2.09 1.175,-2.988 2.136,-2.988 0.941,0 1.2,0.834 1.283,1.639 z m 3.778,-2.072 c -1.433,0 -2.652,1.316 -2.936,3.578 -0.278,2.273 0.625,3.59 2.058,3.59 1.428,0 2.657,-1.316 2.935,-3.59 0.278,-2.262 -0.629,-3.578 -2.057,-3.578 z m -0.073,0.59 c 0.951,0 1.657,0.898 1.409,2.988 -0.259,2.092 -1.189,2.994 -2.14,2.994 -0.96,0 -1.663,-0.902 -1.404,-2.994 0.258,-2.09 1.174,-2.988 2.135,-2.988 z m 4.588,0.195 h 0.015 l 0.917,6.24 h 0.59 l 2.448,-6.24 h 0.019 l -0.76,6.24 h 0.721 l 0.849,-6.885 h -1.234 l -2.17,5.672 h -0.03 l -0.804,-5.672 h -1.209 l -0.849,6.885 h 0.736 z m 7.369,0 h 0.025 l 0.906,6.24 h 0.6 l 2.448,-6.24 h 0.009 l -0.761,6.24 h 0.731 l 0.839,-6.885 h -1.233 l -2.17,5.672 h -0.029 l -0.804,-5.672 h -1.209 l -0.84,6.885 h 0.727 z m 10.82,-0.645 h -0.722 l -0.517,4.219 c -0.137,1.074 -0.341,2.117 -1.727,2.117 -1.375,0 -1.321,-1.043 -1.199,-2.117 l 0.517,-4.219 h -0.722 l -0.581,4.721 c -0.239,1.857 0.932,2.307 1.902,2.307 0.97,0 2.243,-0.449 2.467,-2.307 z m 2.365,0.625 h 0.025 l 2.394,6.26 h 0.735 l 0.836,-6.885 h -0.723 l -0.662,5.424 h -0.02 l -2.078,-5.424 h -1.156 l -0.839,6.885 h 0.722 z m 6.738,-0.625 h -0.721 l -0.85,6.885 h 0.735 z m 5.847,1.932 c -0.049,-1.174 -0.648,-2.072 -1.867,-2.072 -1.439,0 -2.658,1.316 -2.936,3.578 -0.279,2.273 0.619,3.59 2.057,3.59 1.23,0 2.078,-0.922 2.41,-2.057 l -0.654,-0.176 c -0.268,0.809 -0.785,1.637 -1.682,1.637 -0.961,0 -1.668,-0.902 -1.41,-2.994 0.248,-2.09 1.182,-2.988 2.141,-2.988 0.941,0 1.201,0.834 1.283,1.639 z m 3.942,-1.932 h -1.025 l -2.789,6.885 h 0.742 l 0.873,-2.193 h 2.238 l 0.35,2.193 h 0.746 z m -0.065,4.073 h -1.883 l 1.348,-3.613 h 0.018 z m 6.471,-4.073 h -4.424 l -0.082,0.619 h 1.859 l -0.775,6.266 h 0.734 l 0.766,-6.266 h 1.848 z m 2.252,0 h -0.727 l -0.842,6.885 h 0.721 z m 3.965,-0.14 c -1.424,0 -2.652,1.316 -2.93,3.578 -0.283,2.273 0.629,3.59 2.053,3.59 1.439,0 2.658,-1.316 2.936,-3.59 0.29,-2.262 -0.62,-3.578 -2.059,-3.578 z m -0.069,0.59 c 0.961,0 1.664,0.898 1.406,2.988 -0.25,2.092 -1.182,2.994 -2.133,2.994 -0.961,0 -1.662,-0.902 -1.414,-2.994 0.26,-2.09 1.192,-2.988 2.141,-2.988 z m 4.588,0.175 h 0.02 l 2.41,6.26 h 0.721 l 0.849,-6.885 h -0.736 l -0.658,5.424 h -0.026 l -2.076,-5.424 h -1.146 l -0.848,6.885 h 0.725 z m 9.569,1.03 c -0.137,-0.996 -0.736,-1.795 -1.828,-1.795 -1.098,0 -2.068,0.742 -2.215,1.877 -0.277,2.303 3.176,1.512 2.936,3.424 -0.082,0.736 -0.766,1.271 -1.477,1.271 -0.859,0 -1.395,-0.705 -1.469,-1.521 l -0.711,0.166 c 0.082,1.199 0.877,1.951 2.096,1.951 1.172,0 2.15,-0.746 2.297,-1.951 0.299,-2.398 -3.145,-1.73 -2.936,-3.451 0.094,-0.67 0.732,-1.176 1.367,-1.176 0.887,0 1.125,0.633 1.258,1.41 z m 10.22,0 c -0.137,-0.996 -0.736,-1.795 -1.818,-1.795 -1.107,0 -2.078,0.742 -2.225,1.877 -0.277,2.303 3.176,1.512 2.936,3.424 -0.082,0.736 -0.766,1.271 -1.469,1.271 -0.867,0 -1.404,-0.705 -1.477,-1.521 l -0.713,0.166 c 0.094,1.199 0.879,1.951 2.107,1.951 1.162,0 2.15,-0.746 2.297,-1.951 0.287,-2.398 -3.145,-1.73 -2.936,-3.451 0.084,-0.67 0.732,-1.176 1.35,-1.176 0.895,0 1.127,0.633 1.264,1.41 z m 5.569,-1.655 h -3.741 l -0.847,6.885 h 3.949 l 0.068,-0.619 h -3.213 l 0.331,-2.682 h 2.152 l 0.072,-0.623 h -2.15 l 0.287,-2.342 h 3.01 z m 5.281,1.932 c -0.064,-1.174 -0.662,-2.072 -1.881,-2.072 -1.436,0 -2.668,1.316 -2.938,3.578 -0.277,2.273 0.625,3.59 2.059,3.59 1.229,0 2.076,-0.922 2.408,-2.057 l -0.652,-0.176 c -0.268,0.809 -0.785,1.637 -1.682,1.637 -0.951,0 -1.664,-0.902 -1.404,-2.994 0.256,-2.09 1.174,-2.988 2.125,-2.988 0.961,0 1.209,0.834 1.291,1.639 z m 5.836,-1.951 h -0.721 l -0.518,4.223 c -0.121,1.074 -0.342,2.117 -1.717,2.117 -1.385,0 -1.33,-1.043 -1.209,-2.117 l 0.527,-4.223 h -0.732 l -0.58,4.73 c -0.225,1.844 0.941,2.303 1.902,2.303 0.98,0 2.244,-0.459 2.473,-2.303 z m 1.635,0.019 -0.85,6.885 h 0.729 l 0.379,-3.1 h 1.375 l 0.869,3.1 h 0.795 l -0.922,-3.217 c 0.818,-0.254 1.418,-0.912 1.521,-1.736 0.092,-0.801 -0.123,-1.932 -2.273,-1.932 z m 0.654,0.619 h 1.102 c 0.975,0 1.531,0.336 1.418,1.283 -0.084,0.633 -0.443,1.262 -1.861,1.262 h -0.98 z m 5.865,-0.619 h -0.723 l -0.847,6.885 h 0.726 z m 5.744,0 h -4.418 l -0.074,0.619 h 1.85 l -0.768,6.266 h 0.723 l 0.765,-6.266 h 1.854 z m 5.291,0 h -0.732 l -1.965,3.297 h -0.02 l -1.257,-3.297 h -0.766 l 1.561,4 -0.352,2.885 h 0.723 l 0.359,-2.885 z"
       fill="#33348e"
       id="path1" />
  </g>
</svg>
