<?xml version="1.0" encoding="UTF-8" standalone="no"?>
<svg
   viewBox="0 0 128 128"
   version="1.1"
   id="svg6245"
   sodipodi:docname="vscode.svg"
   inkscape:version="1.1.1 (3bf5ae0d25, 2021-09-20)"
   xmlns:inkscape="http://www.inkscape.org/namespaces/inkscape"
   xmlns:sodipodi="http://sodipodi.sourceforge.net/DTD/sodipodi-0.dtd"
   xmlns="http://www.w3.org/2000/svg"
   xmlns:svg="http://www.w3.org/2000/svg">
  <defs
     id="defs6249" />
  <sodipodi:namedview
     id="namedview6247"
     pagecolor="#ffffff"
     bordercolor="#999999"
     borderopacity="1"
     inkscape:pageshadow="0"
     inkscape:pageopacity="0"
     inkscape:pagecheckerboard="0"
     showgrid="false"
     inkscape:zoom="2.7289902"
     inkscape:cx="63.943065"
     inkscape:cy="64.126283"
     inkscape:window-width="1366"
     inkscape:window-height="744"
     inkscape:window-x="-4"
     inkscape:window-y="-4"
     inkscape:window-maximized="1"
     inkscape:current-layer="svg6245" />
  <path
     d="m 21.055787,50.364642 c 0,0 -2.163871,-1.566251 0.436062,-3.655062 l 6.053406,-5.428621 c 0,0 1.734242,-1.829318 3.56642,-0.234473 l 55.883918,42.411015 v 20.337669 c 0,0 -0.02788,3.19398 -4.115429,2.84227 z m 0,0"
     fill="#2489ca"
     id="path6237"
     style="stroke-width:0.714857" />
  <path
     d="M 35.462293,63.472254 21.055787,76.599166 c 0,0 -1.479754,1.103024 0,3.077458 l 6.688198,6.095583 c 0,0 1.588412,1.712081 3.937431,-0.234473 L 46.950039,73.929891 Z m 0,0"
     fill="#1070b3"
     id="path6239"
     style="stroke-width:0.714857" />
  <path
     d="M 60.750346,63.580912 87.166444,43.361192 86.995593,23.132893 c 0,0 -1.128044,-4.414955 -4.891764,-2.115261 l -35.15379,32.069184 z m 0,0"
     fill="#0877b9"
     id="path6241"
     style="stroke-width:0.714857" />
  <path
     d="m 82.879449,106.66246 c 1.533367,1.57483 3.393424,1.05799 3.393424,1.05799 L 106.8586,97.553759 c 2.63568,-1.801439 2.26681,-4.035366 2.26681,-4.035366 V 32.794896 c 0,-2.66999 -2.72503,-3.59144 -2.72503,-3.59144 L 88.55684,20.58157 c -3.898113,-2.415501 -6.453011,0.436062 -6.453011,0.436062 0,0 3.283337,-2.371179 4.891764,2.115976 v 80.290552 c 0,0.55259 -0.117236,1.09373 -0.351709,1.58269 -0.468946,0.95219 -1.491191,1.83719 -3.934571,1.46618 z m 0,0"
     fill="#3c99d4"
     id="path6243"
     style="stroke-width:0.714857" />
</svg>
