<svg viewBox="0 0 128 128" xmlns="http://www.w3.org/2000/svg"><path d="M21.056 50.365s-2.164-1.567.436-3.655l6.053-5.429s1.734-1.83 3.567-.235l55.884 42.412v20.337s-.028 3.194-4.116 2.842zm0 0" fill="#2489ca" style="stroke-width:.714857"/><path d="M35.462 63.472 21.056 76.6s-1.48 1.103 0 3.078l6.688 6.095s1.588 1.712 3.937-.234L46.95 73.93zm0 0" fill="#1070b3" style="stroke-width:.714857"/><path d="m60.75 63.58 26.416-20.219-.17-20.228s-1.128-4.415-4.892-2.115L46.95 53.087zm0 0" fill="#0877b9" style="stroke-width:.714857"/><path d="M82.88 106.662c1.533 1.575 3.393 1.058 3.393 1.058l20.586-10.166c2.635-1.802 2.266-4.036 2.266-4.036V32.795c0-2.67-2.725-3.592-2.725-3.592l-17.843-8.621c-3.898-2.416-6.453.436-6.453.436s3.283-2.372 4.892 2.116v80.29c0 .553-.118 1.094-.352 1.583-.47.952-1.491 1.837-3.935 1.466zm0 0" fill="#3c99d4" style="stroke-width:.714857"/></svg>