<?xml version="1.0" encoding="UTF-8" standalone="no"?>
<svg
   width="2500"
   height="2500"
   viewBox="-0.716259478639536 -11.240984926608125 7.74238908096865 26.657682895244093"
   preserveAspectRatio="xMidYMid"
   version="1.1"
   id="svg5"
   sodipodi:docname="sqlite.svg"
   inkscape:version="1.3.2 (091e20ef0f, 2023-11-25, custom)"
   xmlns:inkscape="http://www.inkscape.org/namespaces/inkscape"
   xmlns:sodipodi="http://sodipodi.sourceforge.net/DTD/sodipodi-0.dtd"
   xmlns="http://www.w3.org/2000/svg"
   xmlns:svg="http://www.w3.org/2000/svg">
  <sodipodi:namedview
     id="namedview5"
     pagecolor="#ffffff"
     bordercolor="#000000"
     borderopacity="0.25"
     inkscape:showpageshadow="2"
     inkscape:pageopacity="0.0"
     inkscape:pagecheckerboard="0"
     inkscape:deskcolor="#d1d1d1"
     inkscape:zoom="0.1724"
     inkscape:cx="1250"
     inkscape:cy="1252.9002"
     inkscape:window-width="1894"
     inkscape:window-height="1054"
     inkscape:window-x="0"
     inkscape:window-y="0"
     inkscape:window-maximized="1"
     inkscape:current-layer="svg5" />
  <defs
     id="defs3">
    <linearGradient
       x1="2.983"
       y1=".53"
       x2="2.983"
       y2="4.744"
       id="a"
       gradientUnits="userSpaceOnUse"
       gradientTransform="matrix(3.085926,0,0,3.085926,-6.836194,-8.0270808)">
      <stop
         stop-color="#97d9f6"
         offset="0%"
         id="stop1" />
      <stop
         stop-color="#0f80cc"
         offset="92.024%"
         id="stop2" />
      <stop
         stop-color="#0f80cc"
         offset="100%"
         id="stop3" />
    </linearGradient>
  </defs>
  <path
     d="M 8.4699989,-7.1321618 H -4.2224146 c -0.8517155,0 -1.5429631,0.6974193 -1.5429631,1.542963 V 8.4085607 c 0,0.8517162 0.6974193,1.5429635 1.5429631,1.5429635 H 4.1404447 C 4.047867,5.7916961 5.4673929,-2.2810862 8.4730848,-7.1445055 Z"
     fill="#0f80cc"
     id="path3"
     style="stroke-width:3.08593" />
  <path
     d="M 8.00711,-6.6785307 H -4.2224146 A 1.0985896,1.0985896 0 0 0 -5.3179184,-5.583027 V 7.3932917 C -2.5467569,6.3286472 1.6099854,5.4121272 4.4860684,5.4553302 A 89.275839,89.275839 0 0 1 8.0101959,-6.6785307 Z"
     fill="url(#a)"
     id="path4"
     style="fill:url(#a);stroke-width:3.08593" />
  <path
     d="M 11.432488,-7.5888789 C 10.562257,-8.360361 9.509956,-8.0517684 8.4699989,-7.1321618 L 8.00711,-6.6816166 c -1.7774934,1.8824148 -3.3945186,5.375683 -3.9376416,8.045009 a 7.3445038,7.3445038 0 0 1 0.4567171,1.3146045 l 0.067891,0.3085926 0.067891,0.3147644 c 0,0 -0.015429,-0.061719 -0.080234,-0.2468741 L 4.5385292,2.9310428 A 1.4226118,1.4226118 0 0 0 4.5107559,2.8631524 14.556313,14.556313 0 0 0 3.9336877,1.7769065 27.122203,27.122203 0 0 0 3.6158373,2.7674887 c 0.4073422,0.7467941 0.6542163,2.0243674 0.6542163,2.0243674 0,0 -0.021602,-0.08332 -0.123437,-0.3703111 C 4.0540388,4.1654132 3.6034936,3.3723301 3.4985721,3.1871747 3.3134166,3.8660784 3.2424403,4.3227953 3.3072447,4.4338887 3.4306817,4.6499035 3.5541189,5.0510739 3.6621262,5.4337288 a 23.206164,23.206164 0 0 1 0.4073422,2.0552266 l 0.015429,0.1913271 a 18.855008,18.855008 0 0 0 0.046288,2.3144447 C 4.21142,10.960622 4.3626306,11.790736 4.553958,12.235109 l 0.129609,-0.07097 C 4.4058343,11.28773 4.2885692,10.142851 4.337944,8.818989 4.4150922,6.797708 4.877981,4.3598265 5.7389543,1.8201094 7.1985973,-2.0465558 9.2106207,-5.1263099 11.056005,-6.5952107 9.3741755,-5.0769351 7.0998477,-0.16414101 6.420944,1.6534694 5.6587203,3.6901805 5.1186832,5.6034546 4.7915752,7.4334087 5.3532137,5.717634 7.1677381,4.9770117 7.1677381,4.9770117 c 0,0 0.8949185,-1.0985897 1.9317897,-2.669326 L 7.1091055,2.8384651 6.4672329,3.1223702 c 0,0 1.6355408,-0.9967541 3.0458091,-1.4503853 1.934875,-3.0458088 4.042563,-7.375363 1.919446,-9.2639499"
     fill="#003b57"
     id="path5"
     style="stroke-width:3.08593" />
</svg>
