<svg width="2500" height="2500" viewBox="-0.716 -11.241 7.742 26.658" preserveAspectRatio="xMidYMid" xmlns="http://www.w3.org/2000/svg"><defs><linearGradient x1="2.983" y1=".53" x2="2.983" y2="4.744" id="a" gradientUnits="userSpaceOnUse" gradientTransform="matrix(3.08593 0 0 3.08593 -6.836 -8.027)"><stop stop-color="#97d9f6" offset="0%"/><stop stop-color="#0f80cc" offset="92.024%"/><stop stop-color="#0f80cc" offset="100%"/></linearGradient></defs><path d="M8.47-7.132H-4.222c-.852 0-1.543.697-1.543 1.543V8.409c0 .851.697 1.543 1.543 1.543H4.14C4.048 5.792 5.467-2.281 8.473-7.145z" fill="#0f80cc" style="stroke-width:3.08593"/><path d="M8.007-6.679h-12.23a1.099 1.099 0 0 0-1.095 1.096V7.393c2.771-1.064 6.928-1.98 9.804-1.938A89.276 89.276 0 0 1 8.01-6.679z" fill="url(#a)" style="fill:url(#a);stroke-width:3.08593"/><path d="M11.432-7.589c-.87-.771-1.922-.463-2.962.457l-.463.45C6.23-4.799 4.613-1.306 4.07 1.363a7.345 7.345 0 0 1 .457 1.315l.068.309.068.314s-.015-.061-.08-.247l-.043-.123a1.423 1.423 0 0 0-.028-.068 14.556 14.556 0 0 0-.577-1.086 27.122 27.122 0 0 0-.318.99c.407.747.654 2.025.654 2.025s-.022-.083-.123-.37c-.093-.257-.544-1.05-.648-1.235-.186.68-.257 1.136-.192 1.247.124.216.247.617.355 1a23.206 23.206 0 0 1 .407 2.055l.016.191a18.855 18.855 0 0 0 .046 2.315c.08.966.232 1.796.423 2.24l.13-.07c-.278-.877-.395-2.022-.346-3.346.077-2.021.54-4.46 1.401-6.999 1.46-3.867 3.472-6.946 5.317-8.415C9.374-5.077 7.1-.165 6.421 1.653c-.762 2.037-1.302 3.95-1.63 5.78.562-1.715 2.377-2.456 2.377-2.456s.895-1.099 1.932-2.67l-1.99.531-.643.284s1.636-.996 3.046-1.45c1.935-3.046 4.043-7.375 1.92-9.264" fill="#003b57" style="stroke-width:3.08593"/></svg>