<?xml version="1.0" encoding="UTF-8" standalone="no"?>
<svg
   viewBox="0 0 128 128"
   version="1.1"
   id="svg7"
   sodipodi:docname="bootstrap.svg"
   inkscape:version="1.3.2 (091e20ef0f, 2023-11-25, custom)"
   xmlns:inkscape="http://www.inkscape.org/namespaces/inkscape"
   xmlns:sodipodi="http://sodipodi.sourceforge.net/DTD/sodipodi-0.dtd"
   xmlns="http://www.w3.org/2000/svg"
   xmlns:svg="http://www.w3.org/2000/svg">
  <sodipodi:namedview
     id="namedview7"
     pagecolor="#ffffff"
     bordercolor="#000000"
     borderopacity="0.25"
     inkscape:showpageshadow="2"
     inkscape:pageopacity="0.0"
     inkscape:pagecheckerboard="0"
     inkscape:deskcolor="#d1d1d1"
     inkscape:zoom="3.3671875"
     inkscape:cx="64"
     inkscape:cy="63.851508"
     inkscape:window-width="1894"
     inkscape:window-height="1054"
     inkscape:window-x="0"
     inkscape:window-y="0"
     inkscape:window-maximized="1"
     inkscape:current-layer="svg7" />
  <defs
     id="defs6">
    <linearGradient
       id="a"
       x1="76.079"
       x2="523.48"
       y1="10.798"
       y2="365.95"
       gradientTransform="matrix(0.19814771,0,0,0.19814771,13.273152,24.305575)"
       gradientUnits="userSpaceOnUse">
      <stop
         offset="0"
         stop-color="#9013fe"
         id="stop1" />
      <stop
         offset="1"
         stop-color="#6610f2"
         id="stop2" />
    </linearGradient>
    <linearGradient
       id="b"
       x1="193.51"
       x2="293.51"
       y1="109.74"
       y2="278.87"
       gradientTransform="translate(0,52)"
       gradientUnits="userSpaceOnUse">
      <stop
         offset="0"
         stop-color="#fff"
         id="stop3" />
      <stop
         offset="1"
         stop-color="#f1e5fc"
         id="stop4" />
    </linearGradient>
    <filter
       id="c"
       width="197"
       height="249"
       x="161.9"
       y="135.46"
       color-interpolation-filters="sRGB"
       filterUnits="userSpaceOnUse">
      <feFlood
         flood-opacity="0"
         result="BackgroundImageFix"
         id="feFlood4" />
      <feColorMatrix
         in="SourceAlpha"
         values="0 0 0 0 0 0 0 0 0 0 0 0 0 0 0 0 0 0 127 0"
         id="feColorMatrix4" />
      <feOffset
         dy="4"
         id="feOffset4" />
      <feGaussianBlur
         stdDeviation="8"
         id="feGaussianBlur4" />
      <feColorMatrix
         values="0 0 0 0 0 0 0 0 0 0 0 0 0 0 0 0 0 0 0.15 0"
         id="feColorMatrix5" />
      <feBlend
         in2="BackgroundImageFix"
         result="effect1_dropShadow"
         id="feBlend5" />
      <feBlend
         in="SourceGraphic"
         in2="effect1_dropShadow"
         result="shape"
         id="feBlend6" />
    </filter>
  </defs>
  <path
     fill="url(#a)"
     d="m 24.464634,34.871141 c -0.191162,-5.496933 4.091042,-10.565566 9.879963,-10.565566 h 59.316872 c 5.788921,0 10.071121,5.068633 9.879971,10.565566 -0.18391,5.279961 0.0549,12.119872 1.77611,17.696658 1.72692,5.594531 4.63871,9.12983 9.40811,9.584748 v 5.151712 c -4.7694,0.454919 -7.68119,3.990217 -9.40811,9.584749 -1.72127,5.576786 -1.96002,12.416697 -1.77611,17.696657 0.19115,5.496925 -4.09105,10.564765 -9.879971,10.564765 H 34.344597 c -5.788921,0 -10.071125,-5.06863 -9.879963,-10.564765 0.183904,-5.27996 -0.05485,-12.119871 -1.776925,-17.696657 -1.726109,-5.593725 -4.645977,-9.12983 -9.415363,-9.584749 v -5.151712 c 4.769386,-0.454111 7.689254,-3.990217 9.415363,-9.584748 1.722077,-5.576786 1.960023,-12.416697 1.776925,-17.696658 z"
     id="path6"
     style="fill:url(#a);stroke-width:0.806594" />
  <path
     fill="url(#b)"
     d="m 267.1,364.46 c 47.297,0 75.798,-23.158 75.798,-61.355 0,-28.873 -20.336,-49.776 -50.532,-53.085 v -1.203 c 22.185,-3.609 39.594,-24.211 39.594,-47.219 0,-32.783 -25.882,-54.138 -65.322,-54.138 h -88.74 v 217 z M 212.408,174.98 h 45.911 c 24.958,0 39.131,11.128 39.131,31.279 0,21.505 -16.484,33.535 -46.372,33.535 h -38.67 z m 0,161.96 v -71.431 h 45.602 c 32.661,0 49.608,12.03 49.608,35.49 0,23.459 -16.484,35.941 -47.605,35.941 z"
     filter="url(#c)"
     transform="matrix(0.19814771,0,0,0.19814771,13.582884,14.295753)"
     id="path7"
     style="fill:url(#b)" />
</svg>
