<svg viewBox="0 0 128 128" xmlns="http://www.w3.org/2000/svg"><defs><linearGradient id="a" x1="76.079" x2="523.48" y1="10.798" y2="365.95" gradientTransform="matrix(.19815 0 0 .19815 13.273 24.306)" gradientUnits="userSpaceOnUse"><stop offset="0" stop-color="#9013fe"/><stop offset="1" stop-color="#6610f2"/></linearGradient><linearGradient id="b" x1="193.51" x2="293.51" y1="109.74" y2="278.87" gradientTransform="translate(0 52)" gradientUnits="userSpaceOnUse"><stop offset="0" stop-color="#fff"/><stop offset="1" stop-color="#f1e5fc"/></linearGradient><filter id="c" width="197" height="249" x="161.9" y="135.46" color-interpolation-filters="sRGB" filterUnits="userSpaceOnUse"><feFlood flood-opacity="0" result="BackgroundImageFix"/><feColorMatrix in="SourceAlpha" values="0 0 0 0 0 0 0 0 0 0 0 0 0 0 0 0 0 0 127 0"/><feOffset dy="4"/><feGaussianBlur stdDeviation="8"/><feColorMatrix values="0 0 0 0 0 0 0 0 0 0 0 0 0 0 0 0 0 0 0.15 0"/><feBlend in2="BackgroundImageFix" result="effect1_dropShadow"/><feBlend in="SourceGraphic" in2="effect1_dropShadow" result="shape"/></filter></defs><path fill="url(#a)" d="M24.465 34.871c-.192-5.497 4.09-10.565 9.88-10.565H93.66c5.79 0 10.072 5.068 9.88 10.565-.183 5.28.055 12.12 1.777 17.697 1.726 5.594 4.638 9.13 9.408 9.585v5.151c-4.77.455-7.682 3.99-9.408 9.585-1.722 5.577-1.96 12.417-1.777 17.697.192 5.497-4.09 10.564-9.88 10.564H34.345c-5.79 0-10.072-5.068-9.88-10.564.184-5.28-.055-12.12-1.777-17.697-1.726-5.594-4.646-9.13-9.416-9.585v-5.151c4.77-.455 7.69-3.99 9.416-9.585 1.722-5.577 1.96-12.417 1.777-17.697z" style="fill:url(#a);stroke-width:.806594"/><path fill="url(#b)" d="M267.1 364.46c47.297 0 75.798-23.158 75.798-61.355 0-28.873-20.336-49.776-50.532-53.085v-1.203c22.185-3.609 39.594-24.211 39.594-47.219 0-32.783-25.882-54.138-65.322-54.138h-88.74v217zm-54.692-189.48h45.911c24.958 0 39.131 11.128 39.131 31.279 0 21.505-16.484 33.535-46.372 33.535h-38.67zm0 161.96v-71.431h45.602c32.661 0 49.608 12.03 49.608 35.49 0 23.459-16.484 35.941-47.605 35.941z" filter="url(#c)" transform="matrix(.19815 0 0 .19815 13.583 14.296)" style="fill:url(#b)"/></svg>