<svg width="512" height="512" viewBox="0 0 66.771 66.765" preserveAspectRatio="xMinYMin" xmlns="http://www.w3.org/2000/svg"><g fill="#2ba977"><path d="M117.577 35.473h41.661v190.949c-21.34 4.036-37.049 5.624-54.047 5.624-50.883-.053-77.37-22.785-77.37-66.445 0-42.065 28.095-69.366 71.633-69.366 6.756 0 11.903.532 18.123 2.125zm1.46 97.298c-4.88-1.594-8.9-2.125-14.048-2.125-21.072 0-33.243 12.853-33.243 35.378 0 21.931 11.636 34.04 32.975 34.04 4.61 0 8.364-.259 14.316-1.056z" style="stroke-width:.781963" transform="translate(7.128 .879) scale(.19814)"/><path d="M227.367 101.362v95.605c0 32.924-2.466 48.757-9.705 62.408-6.756 13.124-15.657 21.4-34.048 30.54l-38.658-18.218c18.39-8.547 27.291-16.099 32.975-27.624 5.95-11.786 7.828-25.437 7.828-61.341v-81.37h41.608zM181.56 35.473h41.662v42.332H181.56z" style="stroke-width:.781963" transform="translate(7.128 .879) scale(.19814)"/></g></svg>