<?xml version="1.0" encoding="UTF-8" standalone="no"?>
<svg
   width="1963"
   height="2500"
   viewBox="0 0 256 326"
   preserveAspectRatio="xMinYMin meet"
   version="1.1"
   id="svg2"
   sodipodi:docname="django.svg"
   inkscape:version="1.3.2 (091e20ef0f, 2023-11-25, custom)"
   xmlns:inkscape="http://www.inkscape.org/namespaces/inkscape"
   xmlns:sodipodi="http://sodipodi.sourceforge.net/DTD/sodipodi-0.dtd"
   xmlns="http://www.w3.org/2000/svg"
   xmlns:svg="http://www.w3.org/2000/svg">
  <defs
     id="defs2" />
  <sodipodi:namedview
     id="namedview2"
     pagecolor="#ffffff"
     bordercolor="#000000"
     borderopacity="0.25"
     inkscape:showpageshadow="2"
     inkscape:pageopacity="0.0"
     inkscape:pagecheckerboard="0"
     inkscape:deskcolor="#d1d1d1"
     inkscape:zoom="0.2195619"
     inkscape:cx="981.5"
     inkscape:cy="1247.9397"
     inkscape:window-width="1894"
     inkscape:window-height="1054"
     inkscape:window-x="0"
     inkscape:window-y="0"
     inkscape:window-maximized="1"
     inkscape:current-layer="svg2" />
  <g
     fill="#2BA977"
     id="g2">
    <path
       d="m 117.57694,35.473318 h 41.66143 V 226.42163 c -21.33978,4.0365 -37.04941,5.62466 -54.04693,5.62466 -50.8839,-0.0531 -77.371331,-22.78561 -77.371331,-66.44495 0,-42.0657 28.095929,-69.366372 71.634063,-69.366372 6.756158,0 11.903038,0.531735 18.122768,2.124593 z m 1.45993,97.297312 c -4.87945,-1.59365 -8.90031,-2.1246 -14.04797,-2.1246 -21.07155,0 -33.242804,12.85313 -33.242804,35.37835 0,21.93093 11.635609,34.04041 32.975374,34.04041 4.61046,0 8.36388,-0.25961 14.3154,-1.05643 z"
       id="path1"
       style="stroke-width:0.781963" />
    <path
       d="m 227.3669,101.36152 v 95.60513 c 0,32.92456 -2.46632,48.75774 -9.70495,62.40847 -6.75616,13.12368 -15.65646,21.39919 -34.04745,30.53956 l -38.65868,-18.21739 c 18.39099,-8.54686 27.29128,-16.09905 32.97537,-27.62441 5.95074,-11.78574 7.82745,-25.43646 7.82745,-61.34108 V 101.3623 H 227.3669 Z M 181.56028,35.473318 h 41.66142 v 42.331565 h -41.66142 z"
       id="path2"
       style="stroke-width:0.781963" />
  </g>
</svg>
