<?xml version="1.0" encoding="UTF-8" standalone="no"?>
<svg
   height="1024pt"
   viewBox=".5 -.2 1023 1024.1"
   width="1024pt"
   version="1.1"
   id="svg2"
   sodipodi:docname="nextjs.svg"
   inkscape:version="1.3.2 (091e20ef0f, 2023-11-25, custom)"
   xmlns:inkscape="http://www.inkscape.org/namespaces/inkscape"
   xmlns:sodipodi="http://sodipodi.sourceforge.net/DTD/sodipodi-0.dtd"
   xmlns="http://www.w3.org/2000/svg"
   xmlns:svg="http://www.w3.org/2000/svg">
  <defs
     id="defs2" />
  <sodipodi:namedview
     id="namedview2"
     pagecolor="#ffffff"
     bordercolor="#000000"
     borderopacity="0.25"
     inkscape:showpageshadow="2"
     inkscape:pageopacity="0.0"
     inkscape:pagecheckerboard="0"
     inkscape:deskcolor="#d1d1d1"
     inkscape:document-units="pt"
     inkscape:zoom="0.31567383"
     inkscape:cx="679.49884"
     inkscape:cy="560.70533"
     inkscape:window-width="1894"
     inkscape:window-height="1054"
     inkscape:window-x="0"
     inkscape:window-y="0"
     inkscape:window-maximized="1"
     inkscape:current-layer="svg2" />
  <path
     d="m 485.7823,111.74751 c -1.72175,0.15653 -7.20008,0.70435 -12.13057,1.09567 -113.71436,10.25229 -220.22863,71.60952 -287.69028,165.91496 -37.56566,52.43539 -61.59202,111.91433 -70.67038,174.91506 -3.20874,21.99156 -3.60005,28.48729 -3.60005,58.30502 0,29.81774 0.39131,36.31347 3.60005,58.30503 21.75676,150.34087 128.74061,276.65537 273.83794,323.45591 25.98292,8.37401 53.37453,14.08713 84.52272,17.53064 12.13057,1.33044 64.56597,1.33044 76.69654,0 53.76584,-5.94789 99.31419,-19.25239 144.23645,-42.1831 6.88704,-3.52178 8.21749,-4.46092 7.27835,-5.24353 -0.62609,-0.46957 -29.97426,-39.83525 -65.19206,-87.41841 L 572.65288,689.94551 492.43456,571.22239 c -44.13964,-65.27032 -80.4531,-118.64485 -80.76615,-118.64485 -0.31305,-0.0783 -0.6261,52.67017 -0.78262,117.07961 -0.23479,112.77522 -0.31306,117.31441 -1.72176,119.9753 -2.03481,3.83483 -3.60005,5.40007 -6.88704,7.12183 -2.50437,1.25218 -4.6957,1.48697 -16.51323,1.48697 h -13.53929 l -3.60005,-2.2696 c -2.34785,-1.48696 -4.06961,-3.44351 -5.24352,-5.7131 l -1.64351,-3.52178 0.15653,-156.91486 0.23478,-156.99312 2.42611,-3.05221 c 1.25219,-1.6435 3.9131,-3.75656 5.79137,-4.77396 3.20874,-1.56524 4.46093,-1.72176 18.00021,-1.72176 15.96541,0 18.6263,0.62609 22.77418,5.16527 1.17393,1.25218 44.60922,66.67903 96.57503,145.48864 51.96582,78.80961 123.02751,186.41955 157.93227,239.24624 l 63.39204,96.0272 3.20872,-2.11306 c 28.40903,-18.46978 58.46155,-44.76574 82.25312,-72.15736 50.63537,-58.1485 83.27053,-129.05367 94.22718,-204.65454 3.20874,-21.99156 3.60005,-28.48729 3.60005,-58.30503 0,-29.81773 -0.39131,-36.31346 -3.60005,-58.30502 C 886.95217,303.33233 779.96832,177.01783 634.87099,130.21729 c -25.59161,-8.29575 -52.8267,-14.00886 -83.34879,-17.45238 -7.51314,-0.78262 -59.24416,-1.64349 -65.7399,-1.0174 z m 163.88016,242.14193 c 3.75656,1.87829 6.80877,5.47833 7.90444,9.23489 0.6261,2.0348 0.78262,45.54835 0.6261,143.61036 l -0.23478,140.71467 -24.80899,-38.03523 -24.88725,-38.03522 V 469.09077 c 0,-66.1312 0.31305,-103.30554 0.78261,-105.10555 1.2522,-4.38267 3.99135,-7.82618 7.74793,-9.86099 3.20873,-1.6435 4.38265,-1.80002 16.66975,-1.80002 11.58275,0 13.61756,0.15652 16.20019,1.56523 z"
     id="path1"
     style="stroke-width:0.782618;fill:#cccccc" />
</svg>
