<svg height="1024pt" viewBox="0.5 -0.2 1023 1024.1" width="1024pt" xmlns="http://www.w3.org/2000/svg"><path d="M485.782 111.748c-1.721.156-7.2.704-12.13 1.095-113.715 10.252-220.229 71.61-287.69 165.915-37.566 52.436-61.593 111.914-70.67 174.915-3.21 21.992-3.601 28.487-3.601 58.305s.391 36.314 3.6 58.305C137.048 720.624 244.031 846.94 389.13 893.74c25.983 8.374 53.375 14.087 84.523 17.53 12.13 1.331 64.566 1.331 76.696 0 53.766-5.947 99.314-19.252 144.237-42.182 6.887-3.522 8.217-4.461 7.278-5.244-.626-.47-29.974-39.835-65.192-87.418l-64.018-86.48-80.218-118.723c-44.14-65.27-80.454-118.644-80.767-118.644-.313-.079-.626 52.67-.782 117.08-.235 112.774-.313 117.314-1.722 119.974-2.035 3.835-3.6 5.4-6.887 7.122-2.504 1.252-4.696 1.487-16.513 1.487h-13.54l-3.6-2.27a14.634 14.634 0 0 1-5.243-5.712l-1.644-3.522.157-156.915.235-156.993 2.426-3.052c1.252-1.644 3.913-3.757 5.791-4.774 3.209-1.566 4.461-1.722 18-1.722 15.966 0 18.627.626 22.775 5.165 1.173 1.252 44.609 66.68 96.575 145.489 51.965 78.81 123.027 186.42 157.932 239.246l63.392 96.027 3.209-2.113c28.409-18.47 58.461-44.766 82.253-72.157 50.635-58.149 83.27-129.054 94.227-204.655 3.209-21.991 3.6-28.487 3.6-58.305s-.391-36.313-3.6-58.305c-21.757-150.34-128.74-276.655-273.838-323.456-25.592-8.295-52.827-14.009-83.349-17.452-7.513-.783-59.244-1.644-65.74-1.017zm163.88 242.141c3.757 1.879 6.81 5.479 7.905 9.235.626 2.035.783 45.549.626 143.61l-.235 140.715-24.809-38.035-24.887-38.035V469.09c0-66.131.313-103.306.783-105.106 1.252-4.382 3.99-7.826 7.748-9.86 3.208-1.644 4.382-1.8 16.67-1.8 11.582 0 13.617.156 16.2 1.564z" style="stroke-width:.782618;fill:#ccc"/></svg>