<?xml version="1.0" encoding="UTF-8" standalone="no"?>
<svg
   viewBox="0 0 128 128"
   version="1.1"
   id="svg1"
   sodipodi:docname="tailwindcss.svg"
   inkscape:version="1.3.2 (091e20ef0f, 2023-11-25, custom)"
   xmlns:inkscape="http://www.inkscape.org/namespaces/inkscape"
   xmlns:sodipodi="http://sodipodi.sourceforge.net/DTD/sodipodi-0.dtd"
   xmlns="http://www.w3.org/2000/svg"
   xmlns:svg="http://www.w3.org/2000/svg">
  <defs
     id="defs1" />
  <sodipodi:namedview
     id="namedview1"
     pagecolor="#ffffff"
     bordercolor="#000000"
     borderopacity="0.25"
     inkscape:showpageshadow="2"
     inkscape:pageopacity="0.0"
     inkscape:pagecheckerboard="0"
     inkscape:deskcolor="#d1d1d1"
     inkscape:zoom="3.3671875"
     inkscape:cx="64"
     inkscape:cy="63.851508"
     inkscape:window-width="1894"
     inkscape:window-height="1054"
     inkscape:window-x="0"
     inkscape:window-y="0"
     inkscape:window-maximized="1"
     inkscape:current-layer="svg1" />
  <path
     d="m 64.004,33.102 c -13.733428,0 -22.313702,6.863898 -25.749674,20.597326 5.148325,-6.864703 11.15846,-9.438866 18.023162,-7.722489 3.919584,0.976879 6.720665,3.818999 9.822696,6.968506 C 71.14873,58.068723 76.992297,64 89.753674,64 103.4863,64 112.06738,57.135298 115.50335,43.398651 110.35422,50.267377 104.34489,52.84154 97.479381,51.125163 93.560603,50.14748 90.76274,47.306164 87.656685,44.156657 82.611359,39.033277 76.769401,33.102 64.004,33.102 Z M 38.254326,64 c -13.732624,0 -22.313703,6.864702 -25.749675,20.601349 5.148326,-6.868726 11.157656,-9.442889 18.023163,-7.726512 3.919583,0.977683 6.720665,3.818999 9.822696,6.968506 C 45.399056,88.966723 51.242622,94.898 64.004,94.898 c 13.732623,0 22.313702,-6.863898 25.749674,-20.597326 -5.14913,6.864703 -11.15846,9.438866 -18.023967,7.722489 C 67.810928,81.046284 65.013065,78.204164 61.907011,75.054657 56.861684,69.931277 51.019727,64 38.254326,64 Z m 0,0"
     fill="#38bdf8"
     id="path1"
     style="stroke-width:0.804677" />
</svg>
