<svg viewBox="0 0 128 128" xmlns="http://www.w3.org/2000/svg"><path d="M64.004 33.102c-13.733 0-22.314 6.864-25.75 20.597 5.149-6.864 11.159-9.439 18.023-7.722 3.92.977 6.721 3.819 9.823 6.968C71.15 58.07 76.992 64 89.754 64c13.732 0 22.313-6.865 25.75-20.601-5.15 6.868-11.16 9.443-18.025 7.726-3.918-.978-6.716-3.819-9.822-6.968-5.046-5.124-10.888-11.055-23.653-11.055zM38.254 64c-13.732 0-22.313 6.865-25.75 20.601 5.149-6.868 11.158-9.443 18.024-7.726 3.92.978 6.72 3.819 9.823 6.968 5.048 5.124 10.892 11.055 23.653 11.055 13.733 0 22.314-6.864 25.75-20.597-5.15 6.864-11.159 9.439-18.024 7.722-3.92-.977-6.717-3.819-9.823-6.968C56.862 69.93 51.02 64 38.254 64zm0 0" fill="#38bdf8" style="stroke-width:.804677"/></svg>